<?xml version="1.0" encoding="utf-8"?>
<!-- Generator: Adobe Illustrator 23.0.0, SVG Export Plug-In . SVG Version: 6.00 Build 0)  -->
<svg version="1.1" id="图层_1" xmlns="http://www.w3.org/2000/svg" xmlns:xlink="http://www.w3.org/1999/xlink" x="0px" y="0px"
	 viewBox="0 0 1024 1024" style="enable-background:new 0 0 1024 1024;" xml:space="preserve">
<style type="text/css">
	.st0{display:none;}
	.st1{display:inline;fill:#EDCECE;}
	.st2{display:inline;}
	.st3{fill:#7F367F;}
	.st4{fill:#D375CA;}
	.st5{display:inline;fill:#A04B9C;}
	.st6{display:inline;fill:#FF8AEE;}
	.st7{display:inline;fill:#FFBDF9;}
	.st8{display:inline;fill:#EA78DF;}
	.st9{display:inline;fill:#7F3C00;}
	.st10{display:inline;fill:#703404;}
	.st11{display:inline;fill:#D85BCC;}
	.st12{display:inline;fill:#AD4DA8;}
	.st13{fill:#7F3C00;}
	.st14{fill:#8E4B13;}
	.st15{fill:#FFFFFF;}
	.st16{display:inline;fill:#FFEBEB;}
	.st17{display:inline;fill:#FFE9E9;}
	.st18{display:inline;fill:#CB1140;}
	.st19{display:inline;fill:#F06E86;}
	
		.st20{display:inline;fill:none;stroke:#7E4D21;stroke-width:1.1952;stroke-linecap:round;stroke-linejoin:round;stroke-miterlimit:10;}
	
		.st21{display:inline;fill:none;stroke:#FFFFC6;stroke-width:1.1952;stroke-linecap:round;stroke-linejoin:round;stroke-miterlimit:10;}
	
		.st22{display:inline;fill:none;stroke:#7F3C00;stroke-width:2.3904;stroke-linecap:round;stroke-linejoin:round;stroke-miterlimit:10;}
	
		.st23{display:inline;fill:none;stroke:#703404;stroke-width:3.5856;stroke-linecap:round;stroke-linejoin:round;stroke-miterlimit:10;}
	
		.st24{display:inline;fill:none;stroke:#7F3C00;stroke-width:1.7988;stroke-linecap:round;stroke-linejoin:round;stroke-miterlimit:10;}
	.st25{display:inline;fill:#9E3E90;}
	.st26{display:inline;fill:#E961CF;}
	.st27{display:inline;fill:#EF8FE2;}
	.st28{display:inline;fill:#895CEA;}
	.st29{display:inline;fill:#C953C3;}
	.st30{display:inline;fill:#FFBED2;}
	
		.st31{display:inline;fill:none;stroke:#7F3C00;stroke-width:1.1952;stroke-linecap:round;stroke-linejoin:round;stroke-miterlimit:10;}
	.st32{display:inline;opacity:0.73;fill:#FFBED2;}
	.st33{display:inline;fill:#F688D2;}
	.st34{display:inline;fill:#FFFFFF;}
	.st35{display:inline;fill:#C659B6;}
	.st36{display:inline;fill:#5DCEE8;}
	.st37{display:inline;fill:#85E8F9;}
	.st38{display:inline;fill:#ED8EE8;}
	.st39{display:inline;fill:#C64FA5;}
	.st40{display:inline;fill:#84471E;}
	.st41{fill:#C45445;}
	.st42{fill:#FFA792;}
	.st43{fill:#FF876A;}
	.st44{fill:#D48277;}
	.st45{fill:#F1D05C;}
	.st46{fill:#E0634B;}
	.st47{fill:#F1D86A;}
	.st48{font-family:'FZPWJW--GB1-0';}
	.st49{font-size:36.4679px;}
	.st50{fill:none;stroke:#FFFFFF;stroke-width:2.3528;stroke-linecap:round;stroke-linejoin:round;stroke-miterlimit:10;}
	.st51{fill:#A05F3C;}
	.st52{fill:#F2B48B;}
	.st53{fill:#D69069;}
	.st54{fill:#87492D;}
	.st55{fill:#FFE6E3;}
	.st56{fill:#E2BDBA;}
	.st57{fill:#EAEAEA;}
	.st58{fill:#CCCCCC;}
	.st59{fill:#8E433F;}
	.st60{fill:#6D312B;}
	.st61{fill:#C9C9C9;}
	.st62{fill:#A0A0A0;}
	.st63{fill:#F2F2F2;}
	.st64{fill:#DDDDDD;}
	.st65{fill:#A05755;}
	.st66{fill:#8C7372;}
	.st67{fill:#EFEFEF;}
	.st68{fill:#F7E0DF;}
	.st69{fill:none;stroke:#FFFFFF;stroke-width:1.973;stroke-linecap:round;stroke-miterlimit:10;}
	.st70{fill:#EAD0D0;}
	.st71{fill:#441D1B;}
	.st72{fill:#562422;}
	.st73{fill:#4C3322;}
	.st74{fill:none;stroke:#4C3322;stroke-width:1.973;stroke-linecap:round;stroke-miterlimit:10;}
	.st75{fill:#F48B76;}
	.st76{fill:#F7B5AA;}
	.st77{fill:none;stroke:#4C3322;stroke-width:1.973;stroke-linecap:round;stroke-linejoin:round;stroke-miterlimit:10;}
	.st78{fill:#FF9464;}
	.st79{fill:#EA7E53;}
	.st80{fill:#4F3737;}
	.st81{fill:#F9895D;}
	.st82{fill:#FF9E78;}
	.st83{display:inline;fill:#34C17E;}
	.st84{fill:#444141;}
	.st85{fill:#333030;}
	.st86{fill:#34C17E;}
	.st87{fill:#71C9A1;}
	.st88{fill:#007F67;}
	.st89{fill:#00945C;}
	.st90{fill:#34C13E;}
	.st91{fill:#7DC9A1;}
	.st92{fill:#4FB574;}
	.st93{fill:#25AF6A;}
	.st94{fill:#69E86F;}
	.st95{fill:#A9F1AB;}
	.st96{fill:#68DD76;}
	.st97{fill:#8CEA75;}
	.st98{fill:#88F763;}
	.st99{fill:#BEF763;}
	.st100{display:inline;fill:#A29600;}
	.st101{display:inline;fill:#C09C00;}
	.st102{display:inline;fill:#FFF57C;}
	.st103{display:inline;fill:#A29B00;}
	.st104{display:inline;fill:#AF842E;}
	.st105{display:inline;fill:#E2B947;}
	.st106{display:inline;fill:#EDD570;}
	.st107{display:inline;fill:#EADC5C;}
	.st108{display:inline;fill:#DDCB4A;}
	.st109{fill:#FFD7E9;}
	.st110{fill:#FFB3DD;}
	.st111{fill:#FC90C7;}
	.st112{fill:#F27CBD;}
	.st113{fill:#E55EAE;}
	.st114{fill:#683818;}
	.st115{fill:#5B2B0B;}
	.st116{fill:#542300;}
</style>
<g class="st0">
	<polygon class="st1" points="459.71,307.74 459.3,418.81 515.45,364.29 517.89,278.85 	"/>
	<g class="st2">
		<path class="st3" d="M465.5,358.49c0,0,21.06,19.53,47.3,0s15.56,51.88,15.56,51.88l21.06,54.62l26.85,103.14V956.9H259.52h-65.91
			l53.1-115.35l-47.6-104.36l45.77-69.58l80.56-95.21C325.44,572.41,371.21,327.67,465.5,358.49z"/>
		<path class="st3" d="M785.55,956.91H402.89V568.13l7.49-28.83l19.37-74.3l21.05-54.62c0,0-6.95-46.58,4.19-54.23
			c2.64-1.81,6.32-1.4,11.37,2.35c8.48,6.29,16.38,8.51,23.24,8.64c14.42,0.32,24.07-8.64,24.07-8.64
			c3.59-1.17,7.08-1.97,10.51-2.35c87.16-10.26,129.55,216.27,129.55,216.27l80.56,95.2l45.76,69.57l-47.6,104.37L785.55,956.91z"/>
	</g>
	<g class="st2">
		<path class="st4" d="M555.09,663.16v293.75H265.97l40.1-87.16l-35.98-78.84l34.61-52.58l60.84-71.92c0,0,32.04-171.18,97.93-163.4
			c2.57,0.32,5.21,0.92,7.91,1.78c0,0,7.3,6.8,18.19,6.54c5.18-0.1,11.18-1.78,17.56-6.54c3.81-2.83,6.57-3.14,8.57-1.78
			c8.45,5.75,3.18,40.96,3.18,40.96l15.91,41.28L555.09,663.16z"/>
		<path class="st4" d="M713.22,956.91H424.11V663.16l20.29-77.92l15.91-41.28c0,0-1.62-10.86-1.62-21.5
			c0-8.51,1.05-16.89,4.79-19.46c1.97-1.37,4.76-1.05,8.57,1.78c4.06,3.05,7.97,4.83,11.62,5.72c2.06,0.54,4.03,0.79,5.91,0.83
			c1.94,0.03,3.75-0.13,5.43-0.48c7.81-1.46,12.76-6.07,12.76-6.07c2.7-0.89,5.37-1.46,7.94-1.78c21.18-2.48,38.83,13.5,53.06,36.33
			c30.1,48.23,44.84,127.08,44.84,127.08l60.87,71.92l34.58,52.58l-19.75,43.28l-16.23,35.56L713.22,956.91z"/>
	</g>
	<path class="st5" d="M742.53,956.91H656.1c-43.06-20.51-63.54-66.97-79.83-93.01c-2.51-4.03-4.92-7.56-7.3-10.45
		c-4.7-5.68-9.21-14.8-13.88-25.24c-17.08-38.42-35.82-94.43-70.37-59.89c-12.26,12.26-34.67,32.33-60.62,54.9
		c-6.86,5.94-13.97,12.1-21.21,18.32c-62.84,54.01-135.14,113.9-136.89,115.33c-0.03,0.03-0.03,0.03-0.03,0.03l-40.33-49.44
		l60.59-81.26l54.77-73.48l61.89-130.13l45.22-95.07l10.57-5.08l24.64-11.78l0.35-0.19l8.38-4l2.79,4.16l0.16,0.19l25.91,38.36
		l16.89,25.02l38.45,61.86l66.84,107.52l46.2,90.59l45.34,88.85C734.65,923.03,752.72,943.83,742.53,956.91z"/>
	<path class="st6" d="M301.6,893.71c0.02,0.01,0.04,0.02,0.04,0.02c-51.27,33.87-103.46,25.64-103.46,25.64
		c-69.57-11.44-103.81-41.66-105.93-102.45c-0.45-13.25,0.62-27.97,3.18-44.25c7.33-46.59,26.89-106.1,57.9-181.35
		c79.84-193.73,181.01-206.46,205.6-206.54c3.61-0.01,5.57,0.25,5.57,0.25l27.78,46.39c0,0-51.27,209.65-92.46,235.27
		c-2.01,1.26-3.99,2.53-5.94,3.85c-39.84,21.13-20.64,88.06-22.13,131.95c-0.66,19.15,11.57,24.79,18.31,42.73l2.33,4.54
		l15.21,29.63C318.66,875.12,319.57,882.07,301.6,893.71z"/>
	<path class="st7" d="M354.73,404.88c0,0-28.37-5.5-56.76,31.12c-28.37,36.62-33.87,23.81-58.59,64.09s-44.86,53.1-62.25,114.43
		c-17.4,61.34-64.09,97.96-75.07,143.73c-2,8.33-4.27,12.78-6.63,14.43c7.33-46.59,26.89-106.1,57.9-181.35
		c79.84-193.73,181.01-206.46,205.6-206.54C359.47,390.68,358.33,397.36,354.73,404.88z"/>
	<path class="st8" d="M228.42,731.68c0,0,9.13-8.22,29.27-78.71s-11.9-98.87,16.48-119.01s58.59-44.86,58.59-44.86l-21.97,130
		l-18.31,64.08L228.42,731.68z"/>
	<path class="st9" d="M409.25,198.29c-10.95,7.51-19.16,18.37-23.33,30.98c-2.45,7.39-5.86,16.49-10.44,26.39
		c-11.6,25.02-23.8,32.96-18.92,70.19s3.05,43.33-17.09,72.63s-26.24,32.96-23.8,72.02s1.83,41.5-9.76,61.64
		c-11.6,20.14-45.47,36.62-29.91,97.04c9.81,38.08,4.58,55.84-10.07,75.98c-14.65,20.14,101.62-11.9,101.62-11.9l73.24-90.63
		c0,0,0.92-33.87-8.24-50.35c-9.15-16.48,9.15-56.76,10.07-63.17s7.32-52.18-4.58-74.15c-11.9-21.97,6.41-45.77,7.32-57.67
		c0.92-11.9,4.17-25.53-10.07-46.28c-14.24-20.75,14.65-39.87,14.65-39.87l-23.19-37.43L409.25,198.29L409.25,198.29z"/>
	<path class="st10" d="M439.6,216.6c-10.95,7.51-19.16,18.37-23.33,30.98c-2.45,7.39-5.86,16.49-10.44,26.39
		c-11.6,25.02-23.8,32.96-18.92,70.19s3.05,43.33-17.09,72.63s-26.24,32.96-23.8,72.02s1.83,41.5-9.76,61.64
		c-11.6,20.14-38.14,58.59-29.91,97.04s4.58,55.84-10.07,75.98c-14.65,20.14,101.62-11.9,101.62-11.9l62.85-62.25
		c11.89-11.77,16.91-28.87,13.1-45.17c-2.88-12.34-6.71-25.92-10.96-33.57c-9.15-16.48,9.15-56.76,10.07-63.17
		c0.92-6.41,7.32-52.18-4.58-74.15c-11.9-21.97,6.41-45.77,7.32-57.67c0.92-11.9,4.17-25.53-10.07-46.28
		c-14.24-20.75,14.65-39.87,14.65-39.87l-23.19-37.43L439.6,216.6L439.6,216.6z"/>
	<path class="st11" d="M885.43,866.81c-2.89,5.25-6.3,10.09-10.23,14.52c-17.4,19.72-45.03,31.73-83.4,38.04
		c0,0-52.18,8.24-103.46-25.64c0,0,0.01-0.01,0.04-0.02c-17.96-11.64-17.06-18.6-5.99-14.32l5.33-10.39l12.21-23.78
		c6.74-17.94,18.97-23.58,18.31-42.73c-1.49-43.89,17.7-110.82-22.13-131.95c-1.95-1.31-3.93-2.59-5.94-3.85
		c-41.19-25.62-92.46-235.27-92.46-235.27l27.78-46.39c0,0,119.61-15.86,211.17,206.29c28.27,68.62,47.03,124.13,55.67,168.71v0.04
		C901.4,806.87,899.33,841.6,885.43,866.81z"/>
	<path class="st12" d="M625.49,385.04c0,0,35.93,6.11,46.91,43.64c10.99,37.53-6.41,55.84,20.14,82.39
		c26.55,26.55,64.08,60.42,47.6,103.45c-16.48,43.03-29.29,58.59-17.39,89.72c11.9,31.13-53.1-53.1-53.1-53.1L625.49,385.04z"/>
	<path class="st9" d="M569.65,198.29c8.03,0.18,15.03,5.5,17.39,13.18c3.57,11.63,9.42,29.18,16.38,44.19
		c11.6,25.02,23.8,32.96,18.92,70.19c-4.88,37.23-3.05,43.33,17.09,72.63c20.14,29.29,26.24,32.96,23.8,72.02s-1.83,41.5,9.76,61.64
		s47.32,50.66,29.91,97.04c-13.82,36.81-4.58,55.84,10.07,75.98c14.65,20.14-101.62-11.9-101.62-11.9l-78.41-79.75
		c0,0,4.26-44.76,13.41-61.23c9.15-16.48-9.15-56.76-10.07-63.17s-7.32-52.18,4.58-74.15c11.9-21.97-6.41-45.77-7.32-57.67
		c-0.92-11.9-4.17-25.53,10.07-46.28c14.24-20.75-14.65-39.87-14.65-39.87l23.19-37.43L569.65,198.29L569.65,198.29z"/>
	<path class="st10" d="M539.46,222.7c10.95,7.51,19.16,18.37,23.33,30.98c2.45,7.39,5.86,16.49,10.44,26.39
		c11.6,25.02,23.8,32.96,18.92,70.19c-4.88,37.23-3.05,43.33,17.09,72.63c20.14,29.29,26.24,32.96,23.8,72.02s-1.83,41.5,9.76,61.64
		c11.6,20.14,38.14,58.59,29.91,97.04s-4.58,55.84,10.07,75.98c14.65,20.14-101.62-11.9-101.62-11.9l-55.89-69.17
		c-14.13-17.48-19.21-40.79-12.9-62.37c1.02-3.48,2.26-6.7,3.79-9.45c9.15-16.48-9.15-56.76-10.07-63.17
		c-0.92-6.41-7.32-52.18,4.58-74.15c11.9-21.97-6.41-45.77-7.32-57.67c-0.92-11.9-4.17-25.53,10.07-46.28
		c14.24-20.75-14.65-39.87-14.65-39.87l23.19-37.43L539.46,222.7L539.46,222.7z"/>
	<g class="st2">
		<g>
			<path class="st13" d="M522.1,95.45c0,17.19-13.94,31.12-31.12,31.12c-13.35,0-24.74-8.4-29.15-20.22
				c-1.28-3.38-1.97-7.06-1.97-10.9c0-17.2,13.94-31.13,31.12-31.13c6.29,0,12.13,1.86,17.02,5.08
				C516.5,74.94,522.1,84.54,522.1,95.45z"/>
			<path class="st14" d="M508,69.4c-44.66-8.5-45.61,37.13-45.61,37.13c-0.19-0.05-0.38-0.11-0.56-0.18
				c-1.28-3.38-1.97-7.06-1.97-10.9c0-17.2,13.94-31.13,31.12-31.13C497.27,64.32,503.11,66.18,508,69.4z"/>
		</g>
		
			<ellipse transform="matrix(0.9425 -0.3341 0.3341 0.9425 3.6547 165.1526)" class="st15" cx="481.91" cy="71.95" rx="4.96" ry="3.05"/>
		
			<ellipse transform="matrix(0.9425 -0.3341 0.3341 0.9425 1.5898 163.0889)" class="st15" cx="474.87" cy="76.92" rx="1.92" ry="1.61"/>
	</g>
	<path class="st10" d="M581.77,189.75c0,55.61-34.7,97.24-92.57,97.24c-57.86,0-89.01-38.88-89.01-94.5
		c0-18.78,5.04-35.39,13.45-49.13c16.43-26.96,45.74-42.93,75.06-42.72c22.54,0.17,48.29,10.18,66.98,28.34
		C571.14,143.98,581.77,164.56,581.77,189.75z"/>
	<path class="st16" d="M421.33,225.45c0,0-21.72,2.34-15.61,23.9c6.1,21.56,21.87,18.82,21.87,18.82L421.33,225.45z"/>
	<path class="st16" d="M547.36,225.45c0,0,23.27,1.02,18.58,22.94s-19.95,19.94-19.95,19.94L547.36,225.45z"/>
	<path class="st17" d="M552.37,233.18c0,49.74-30.92,97.04-65.42,97.04c-27.6,0-68.64-47.91-68.64-97.65s24.22-72.12,66.93-72.12
		S552.37,183.43,552.37,233.18z"/>
	<path class="st9" d="M502.21,225.84c-1.12-0.17-1.53-1.58-0.68-2.33c1.88-1.67,5.11-3.3,13.33-4.03c12.9-1.15,29.09,0.71,35.6,5.8
		c0,0-16.87-3.53-40.27-0.19C510.19,225.08,505.61,226.35,502.21,225.84z"/>
	<path class="st9" d="M471.6,225.84c1.12-0.17,1.53-1.58,0.68-2.33c-1.88-1.67-5.11-3.3-13.33-4.03c-12.9-1.15-29.09,0.71-35.6,5.8
		c0,0,16.87-3.53,40.27-0.19C463.62,225.08,468.2,226.35,471.6,225.84z"/>
	<circle class="st18" cx="486.18" cy="220.54" r="3.13"/>
	<path class="st19" d="M467.58,288.82c0,0,8.2-3.92,13.64-3.48c4.92,0.4,4.07,2.59,9.36,0.44c5.4-2.19,11.44,1.01,17.99,3.6
		C508.57,289.37,487.07,313.3,467.58,288.82z"/>
	<path class="st20" d="M467.98,288.86c0,0,8.2,0.08,13.39,2.52c3.61,1.7,10.22,0.91,11.9-0.61c2.44-2.21,6.79-3.62,14.88-1.49"/>
	<line class="st21" x1="421.03" y1="263.26" x2="421.03" y2="321.72"/>
	<path class="st9" d="M468.86,158.92c0,0-43.8-12.87-54.11,33.36c0,0-3.05,19.63,4.75,40.13c4.7,12.36-4.04,36.99-10.36,43.18
		c0,0,22.96-16.51,22.52-46.71C431.21,198.68,441.6,166.81,468.86,158.92z"/>
	<line class="st21" x1="551.97" y1="263.26" x2="551.97" y2="321.72"/>
	<path class="st9" d="M500.29,157.09c0,0,45.9-11.04,56.22,35.19c0,0,3.05,19.63-4.75,40.13c-4.7,12.36,4.04,36.99,10.36,43.18
		c0,0-22.96-16.51-22.52-46.71C540.04,198.68,527.55,164.98,500.29,157.09z"/>
	<path class="st22" d="M502.89,242.44c0,0,13.38,6.17,27.44-1.12"/>
	<path class="st22" d="M469.33,242.44c0,0-13.38,6.17-27.44-1.12"/>
	<path class="st23" d="M477.86,158.77c0,0-36.96-3.92-36.1,45.89c0.55,32.39-13.18,43.37-13.18,43.37"/>
	<path class="st23" d="M493.73,156.33c0,0,40.89,11.6,36.09,60.88c-4.45,45.68,17.16,44.76,17.16,44.76"/>
	<path class="st24" d="M486.25,244.54c0,0-5.18,16.48-4.31,23.16s5.18,6.14,5.18,6.14"/>
	<path class="st1" d="M459.61,546.51c1.41,2.61,20.34,62.52,20.34,62.52s21.91-22.79,13.08-68.75"/>
	<path class="st10" d="M521.8,316.31c0,0-15.27,1.32-14.36,28.18c0.92,26.85,12.21,18.61,10.68,36.01
		c-1.53,17.39-30.52,28.99-10.07,60.12c20.45,31.13,26.85-18,26.85-18L521.8,316.31z"/>
	<path class="st10" d="M454.47,316.08c0,0,15.61,1.4,14.7,28.25c-0.92,26.85-12.21,18.61-10.68,36.01
		c1.53,17.39,30.52,28.99,10.07,60.12c-20.45,31.13-26.85-18-26.85-18L454.47,316.08z"/>
	<path class="st25" d="M394.61,606.79c0,0,59.2,28.89,82.6,56.96l-14.24,16.89l-71.81-68.15
		C391.15,612.48,390.54,609.23,394.61,606.79z"/>
	<path class="st25" d="M595.7,606.79c0,0-59.2,28.89-82.6,56.96l14.24,16.89l71.81-68.15C599.15,612.48,599.76,609.23,595.7,606.79z
		"/>
	<path class="st17" d="M384.79,627.28l44.49-49.08c0,0,3.91-8.96,4.53-18.12c0.62-9.16,1.44-17.32,1.44-17.32s-8.65-2.39-4.74-14.14
		l3.91-3.38c0,0-5.15-4.58,0.21-19.71c0,0-6.39,1.39-3.91-5.77c2.47-7.17,10.76-22.85,16.48-26.73c0,0,8.96-17.92,14.06-21.65
		c0,0,2.01-83.93,13.75-88.71c11.74-4.78,10.81,13.14,10.81,13.14s11.43-7.17,15.14,16.43s5.56,36.34,5.56,36.34
		s1.44,8.36,4.12,11.35c2.68,2.99,19.36,15.18,29.25,49.98c0,0,8.19,17.77,1.85,32.85c0,0-1.62,6.42,0.7,11.13
		s11.35,28.3,20.31,38.16c8.96,9.86,38.31,46.89,38.31,46.89s0,21.6-37.08,44.7l-5.15,3.38c0,0-16.48-29.27-25.54-40.22
		c-9.06-10.95-16.48-4.38-23.48-19.51c-7-15.13-12.56-31.66-12.56-46.89c0,0-8.65-9.26-9.27-12.84c0,0-6.18-0.2-10.3-0.2
		c0,0,9.68,19.02,6.9,49.63c0,0,0.1,10.9-15.96,24.84l-31.72,44.2L384.79,627.28z"/>
	<path class="st26" d="M479.23,670.66c0,0-7.14,46.36-36.49,82.38c-1.6,1.97-3.26,3.91-5.01,5.81l-90.63-11.59l-10.98-53.4
		l-5.8-30.82l11.8-9.05l2.84-10.18l49.64-37.01c0,0,21.27,34.84,62.77,51.12c5.98,2.34,12.37,4.3,19.18,5.71
		c0.22,0.05,0.43,0.08,0.65,0.13L479.23,670.66z"/>
	<path class="st27" d="M369.68,662.43c0,0,22.28-24.72,29.6-24.41c7.32,0.31-26.85,22.28-20.75,31.74
		c6.1,9.46,12.51-6.71,19.84-9.15c7.32-2.44,3.97,2.75-2.14,15.26c-6.1,12.51,17.09-9.15,24.72-13.43
		c7.63-4.27,1.93,7.63-7.63,18.31s-15.77,25.33-4.68,17.09c11.09-8.24,12.51-27.57,13.94-19.63c1.42,7.93-3.87,16.17-5.19,18.31
		c-1.32,2.14-6.61,17.29,8.04,6c14.65-11.29,25.84-43.23,25.33-29.6c-0.51,13.63-9.97,44.15-14.55,48.42
		c-4.58,4.27-19.53,23.19-19.53,23.19l-61.03-1.83l14.04-34.79l-29.29-15.26l10.99-27.46c0,0,11.14-14.04,16.33-17.39L369.68,662.43
		z"/>
	<path class="st27" d="M357.58,640.76c-9.76,7.94-15.47,13.23-15.47,13.23l2.84-10.18"/>
	<path class="st8" d="M301.6,893.71c0.02,0.01,0.04,0.02,0.04,0.02c-51.27,33.87-103.46,25.64-103.46,25.64
		c-69.57-11.44-103.81-41.66-105.93-102.45c6.85,29.78,39.14,73.91,178.25,38.05c7.85-2.02,15.13-3.75,21.87-5.21l15.21,29.63
		C318.66,875.12,319.57,882.07,301.6,893.71z"/>
	<path class="st28" d="M453.61,736.28c0,0-67.82,106.78-152,157.43c-1.65-0.81-55.77-28.17-53.07-75.05
		c2.75-47.58-7.31-95.15-20.12-86.99c0.87-1.15,27.94-36.02,65.45-61.13c14.31-7.6,30.86-14.02,49.88-18.19
		c0,0,10.98,16.48,21.97,20.76l-9.16,15.86l9.47-10.67l3.36-0.31c0,0,10.06,16.78,28.98,27.47c0,0,2.14,9.76-17.68,31.11
		c0.66-0.41,21.67-13.61,22.86-26.23c0,0,16.18,11.9,35.1,18.92c0,0,0.61,3.06-0.92,4.58c0,0,2.14,0.31,2.75-1.52
		c0,0,0.27,5.7-3.84,10.49c1.53-1.71,6.51-7.41,7.8-10.49C444.45,732.31,448.11,735.97,453.61,736.28z"/>
	<path class="st26" d="M647.86,653.99l-2.85-10.17l-49.64-37.03c0,0-28.07,45.98-82.6,56.96l-2.03,6.92c0,0,7.93,51.57,41.5,88.19
		l90.63-11.6l10.99-53.4l5.8-30.82L647.86,653.99z"/>
	<path class="st27" d="M619.76,662.43c0,0-22.28-24.72-29.6-24.41c-7.32,0.31,26.85,22.28,20.75,31.74
		c-6.1,9.46-12.51-6.71-19.84-9.15c-7.32-2.44-3.97,2.75,2.14,15.26c6.1,12.51-17.09-9.15-24.72-13.43
		c-7.63-4.27-1.93,7.63,7.63,18.31s15.77,25.33,4.68,17.09c-11.09-8.24-12.51-27.57-13.94-19.63c-1.42,7.93,3.87,16.17,5.19,18.31
		c1.32,2.14,6.61,17.29-8.04,6c-14.65-11.29-25.84-43.23-25.33-29.6c0.51,13.63,9.97,44.15,14.55,48.42s19.53,23.19,19.53,23.19
		l61.03-1.83l-14.04-34.79l29.29-15.26l-10.99-27.46c0,0-11.14-14.04-16.33-17.39L619.76,662.43z"/>
	<path class="st29" d="M885.43,866.81c-2.89,5.25-6.3,10.09-10.23,14.52c-17.4,19.72-45.03,31.73-83.4,38.04
		c0,0-52.18,8.24-103.46-25.64c0,0,0.01-0.01,0.04-0.02c-17.96-11.64-17.06-18.6-5.99-14.32l5.33-10.39l34.11-24.7
		c0,0,170.49,73.83,170.49-84.23C901.4,806.87,899.33,841.6,885.43,866.81z"/>
	<path class="st28" d="M761.56,731.68c-12.8-8.16-22.86,39.41-20.12,86.99c1.15,19.91-7.95,36.3-18.93,48.62
		c-4.18,4.7-8.63,8.81-12.9,12.29c-10.9,8.93-20.56,13.8-21.24,14.14c-84.19-50.65-152-157.43-152-157.43
		c5.5-0.31,9.16-3.97,9.16-3.97c1.29,3.08,6.27,8.78,7.8,10.49c-4.11-4.79-3.84-10.49-3.84-10.49c0.61,1.83,2.75,1.52,2.75,1.52
		c-1.53-1.52-0.92-4.58-0.92-4.58c1.96-0.73,3.88-1.51,5.76-2.32c5.15-2.21,9.97-4.69,14.15-7.03c9.1-5.08,15.19-9.57,15.19-9.57
		c1.2,12.62,22.21,25.83,22.86,26.23c-19.82-21.35-17.68-31.11-17.68-31.11c18.92-10.68,28.98-27.47,28.98-27.47l3.36,0.31
		l9.47,10.67l-9.16-15.86c10.98-4.28,21.97-20.76,21.97-20.76c19.02,4.17,35.57,10.59,49.88,18.19
		C733.62,695.65,760.69,730.53,761.56,731.68z"/>
	<ellipse class="st30" cx="449.18" cy="264.88" rx="14.19" ry="6.41"/>
	<ellipse class="st30" cx="520.89" cy="265.47" rx="14.19" ry="6.41"/>
	<path class="st31" d="M554.61,240.6c0,0-2.24-0.31-4.78,4.68c0,0,5.19-0.41,5.9,3.56"/>
	<path class="st31" d="M417,240.6c0,0,2.24-0.31,4.78,4.68c0,0-5.19-0.41-5.9,3.56"/>
	<circle class="st32" cx="551.88" cy="276.69" r="3.61"/>
	<circle class="st33" cx="552.08" cy="321.11" r="7.78"/>
	<circle class="st32" cx="551.68" cy="297.06" r="10.74"/>
	<g class="st2">
		
			<ellipse transform="matrix(0.4493 -0.8934 0.8934 0.4493 37.1746 649.4656)" class="st15" cx="545.42" cy="294.58" rx="2.29" ry="2.05"/>
		<ellipse transform="matrix(0.866 -0.5 0.5 0.866 -71.9128 313.1708)" class="st15" cx="548.43" cy="290.78" rx="1.02" ry="0.85"/>
		
			<ellipse transform="matrix(0.8308 -0.5566 0.5566 0.8308 -59.9737 352.4703)" class="st15" cx="549.74" cy="274.88" rx="0.63" ry="0.53"/>
		
			<ellipse transform="matrix(0.5291 -0.8486 0.8486 0.5291 24.2797 595.8619)" class="st15" cx="549" cy="276.06" rx="0.26" ry="0.22"/>
		<g>
			<path class="st15" d="M560.13,298.3c0.11,0.99-0.11,2.01-0.52,2.94c-0.41,0.93-1.04,1.79-1.83,2.46c-0.8,0.64-1.7,1.19-2.69,1.44
				c-0.47,0.18-0.99,0.2-1.48,0.28c-0.5,0.03-1,0.01-1.49-0.04c0.46-0.22,0.92-0.35,1.36-0.54c0.43-0.21,0.88-0.34,1.27-0.58
				c0.2-0.11,0.4-0.22,0.61-0.31l0.57-0.37c0.39-0.23,0.73-0.51,1.07-0.8c0.69-0.56,1.27-1.26,1.79-2
				C559.3,300.04,559.74,299.21,560.13,298.3z"/>
		</g>
		<g>
			<path class="st15" d="M554.33,277.47c0.04,0.54-0.23,1.08-0.64,1.44c-0.22,0.17-0.46,0.32-0.72,0.39
				c-0.26,0.08-0.53,0.09-0.79,0.08c0.5-0.18,0.96-0.36,1.32-0.69c0.19-0.15,0.34-0.34,0.48-0.54
				C554.11,277.95,554.24,277.72,554.33,277.47z"/>
		</g>
	</g>
	<circle class="st32" cx="421.13" cy="276.69" r="3.61"/>
	<path class="st33" d="M422.68,328.69c-4.18,0.97-8.37-1.64-9.33-5.83c-0.12-0.51-0.18-1.02-0.19-1.53
		c-0.11-3.63,2.35-6.96,6.02-7.8c3.17-0.73,6.33,0.59,8.09,3.07c0.59,0.8,1,1.73,1.24,2.76
		C429.48,323.55,426.87,327.72,422.68,328.69z"/>
	<circle class="st32" cx="421.33" cy="297.06" r="10.74"/>
	
		<ellipse transform="matrix(0.4493 -0.8934 0.8934 0.4493 -34.6491 532.9414)" class="st34" cx="414.99" cy="294.58" rx="2.29" ry="2.05"/>
	<ellipse transform="matrix(0.866 -0.5 0.5 0.866 -89.3877 247.9538)" class="st34" cx="417.99" cy="290.78" rx="1.02" ry="0.85"/>
	
		<ellipse transform="matrix(0.8308 -0.5566 0.5566 0.8308 -82.0424 279.8755)" class="st34" cx="419.3" cy="274.88" rx="0.63" ry="0.53"/>
	
		<ellipse transform="matrix(0.5291 -0.8486 0.8486 0.5291 -37.1431 485.1799)" class="st34" cx="418.57" cy="276.06" rx="0.26" ry="0.22"/>
	<g class="st2">
		<path class="st15" d="M429.69,298.3c0.11,0.99-0.11,2.01-0.52,2.94c-0.41,0.93-1.04,1.79-1.83,2.46c-0.8,0.64-1.7,1.19-2.69,1.44
			c-0.47,0.18-0.99,0.2-1.48,0.28c-0.5,0.03-1,0.01-1.49-0.04c0.46-0.22,0.92-0.35,1.36-0.54c0.43-0.21,0.88-0.34,1.27-0.58
			c0.2-0.11,0.4-0.22,0.61-0.31l0.57-0.37c0.39-0.23,0.73-0.51,1.07-0.8c0.69-0.56,1.27-1.26,1.79-2
			C428.87,300.04,429.31,299.21,429.69,298.3z"/>
	</g>
	<g class="st2">
		<path class="st15" d="M423.89,277.47c0.04,0.54-0.23,1.08-0.64,1.44c-0.22,0.17-0.46,0.32-0.72,0.39
			c-0.26,0.08-0.53,0.09-0.79,0.08c0.5-0.18,0.96-0.36,1.32-0.69c0.19-0.15,0.34-0.34,0.48-0.54
			C423.68,277.95,423.8,277.72,423.89,277.47z"/>
	</g>
	<path class="st35" d="M442.74,753.05c11-19.06,24.96-67.36,23.88-78.31c-1.22-12.42-14.86-14.25-14.86-14.25s2.26-1.28,5.61-2.58
		c5.98,2.34,12.37,4.3,19.18,5.71c0.22,0.05,0.43,0.08,0.65,0.13l2.03,6.91C479.23,670.66,472.1,717.02,442.74,753.05z"/>
	<path class="st27" d="M344.96,643.81l49.64-37.01c0,0,27.85,45.6,81.95,56.83c-41.37,3.23-81.23-42.26-85.61-45.44
		c-4.47-3.26-23.59,14.64-33.36,22.58"/>
	<path class="st35" d="M546.7,753.05c-11-19.06-24.96-67.36-23.88-78.31c1.22-12.42,14.86-14.25,14.86-14.25s-2.26-1.28-5.61-2.58
		c-5.98,2.34-12.37,4.3-19.18,5.71c-0.22,0.05-0.43,0.08-0.65,0.13l-2.03,6.91C510.21,670.66,517.35,717.02,546.7,753.05z"/>
	<path class="st27" d="M644.48,643.81l-49.64-37.01c0,0-27.85,45.6-81.95,56.83c41.37,3.23,81.23-42.26,85.61-45.44
		c4.47-3.26,23.59,14.64,33.36,22.58"/>
	<path class="st36" d="M722.51,867.28c-4.18,4.7-8.63,8.81-12.9,12.29c-62.87-20.76-130.51-118.59-152.53-152.64
		c5.15-2.21,9.97-4.69,14.15-7.03C611.8,796.66,694.63,850.66,722.51,867.28z"/>
	<path class="st36" d="M885.43,866.81c-2.89,5.25-6.3,10.09-10.23,14.52c-29.03,9.75-94.06,25-165.58-1.76l12.9-12.29
		C722.51,867.28,788.3,899.71,885.43,866.81z"/>
	<path class="st37" d="M267.94,867.28c4.18,4.7,8.63,8.81,12.9,12.29c62.87-20.76,130.51-118.59,152.53-152.64
		c-5.15-2.21-9.97-4.69-14.15-7.03C378.65,796.66,295.82,850.66,267.94,867.28z"/>
	<path class="st37" d="M105.02,866.81c2.89,5.25,6.3,10.09,10.23,14.52c29.03,9.75,94.06,25,165.58-1.76l-12.9-12.29
		C267.94,867.28,202.15,899.71,105.02,866.81z"/>
	<path class="st38" d="M530.51,898.93c-3.05,26.7-8.51,46.74-12.13,57.98H360.5c0.54-7.37,3.62-16.48,11.3-27.47
		c0,0,28.45-38.07,52.3-60.93c17.78-17.05,32.99-25.66,31.94-3.78c-2.45,51.28,30.51,51.28,40.26,32.96
		C506.09,879.41,535.37,856.19,530.51,898.93z"/>
	<path class="st39" d="M422.68,328.69c-4.18,0.97-8.37-1.64-9.33-5.83c-0.12-0.51-0.18-1.02-0.19-1.53
		c0.75,1.43,2.16,2.83,4.74,2.83c5.34,0,3.06-2.89,5.8-2.89c2,0,3.75-2.41,3.57-4.67c0.59,0.8,1,1.73,1.24,2.76
		C429.48,323.55,426.87,327.72,422.68,328.69z"/>
	<path class="st39" d="M553.84,328.73c-4.18,0.97-8.37-1.64-9.33-5.83c-0.12-0.51-0.18-1.02-0.19-1.53
		c0.75,1.43,2.16,2.83,4.74,2.83c5.34,0,3.06-2.89,5.8-2.89c2,0,3.75-2.41,3.57-4.67c0.59,0.8,1,1.73,1.24,2.76
		C560.64,323.59,558.03,327.76,553.84,328.73z"/>
	<path class="st40" d="M555.68,128.97c-24.42-11.52-47.26-13.92-58.13-9.42c-12.51,5.19-28.98,14.65-41.5,9.47
		c-12.51-5.19-26.86,7.63-30.82,18.31c-3.97,10.67-11.59,14.03-13.42,6.41c-0.63-2.65,0.32-6.5,1.84-10.39
		c16.43-26.96,45.74-42.93,75.06-42.72C511.24,100.8,536.98,110.82,555.68,128.97z"/>
</g>
<g class="st0">
	<g class="st2">
		<g>
			<path class="st41" d="M214.44,680.02c0,0,4.02,11.4-6.48,21.23c0,0-5.14,5.36-6.26,13.85s-16.09,15.64-33.97,14.08
				c-17.88-1.56-0.22-59.44-0.22-59.44L214.44,680.02z"/>
		</g>
		<polygon class="st42" points="131.29,648.71 131.29,931.65 170.34,931.65 170.34,646.31 		"/>
		<g>
			<polygon class="st43" points="119.73,666.39 119.73,682 299.69,682 299.69,656.17 			"/>
		</g>
		<polygon class="st44" points="95.2,651.72 119.68,666.94 280.67,666.94 282.67,642.51 97.65,648.11 		"/>
		<polygon class="st42" points="95.2,636.1 95.2,651.72 275.16,651.72 275.16,625.89 		"/>
		<g>
			<polygon class="st41" points="88.59,630.5 95.2,636.1 283.22,636.1 282.62,623.78 90.09,623.78 			"/>
		</g>
		<g>
			<polygon class="st43" points="140.9,565.22 282.07,565.22 279.06,631.29 89.24,631.29 			"/>
		</g>
		<g>
			<path class="st45" d="M280.87,551.6H163.13c0,0-12.01-0.9-7.51-11.41c4.51-10.51,15.32-20.42-4.2-22.53
				c-19.52-2.1-19.22,27.03-12.01,29.43l-42.65,52.86c0,0-7.21,10.21-17.42,10.81s-22.23,11.41-11.41,18.32s19.52,4.51,19.52,4.51
				l52.86-65.35c1.14-1.41,2.85-2.23,4.67-2.23h138.3V550.1L280.87,551.6z"/>
		</g>
		<g>
			<path class="st41" d="M410.02,656.52c0,0,7.21,20.42-11.61,38.04c0,0-9.21,9.61-11.21,24.83s-28.83,28.03-60.87,25.23
				c-32.04-2.8-0.4-106.53-0.4-106.53L410.02,656.52z"/>
		</g>
		<polygon class="st42" points="329.22,665.23 521.75,665.23 518.75,615.68 327.72,615.68 		"/>
		<g>
			<polygon class="st46" points="328.72,634.9 518.95,634.9 518.95,507.15 319.91,512.35 			"/>
		</g>
		<polygon class="st42" points="275.28,474.81 275.28,960.78 332.77,960.78 332.77,470.68 		"/>
		<g>
			<polygon class="st43" points="258.25,500.24 258.25,523.24 526.4,523.24 526.4,485.21 			"/>
		</g>
		<polygon class="st44" points="222.13,478.64 258.18,501.05 526.96,501.05 529.9,465.08 225.74,473.34 		"/>
		<polygon class="st42" points="222.13,455.65 222.13,478.64 528.96,478.64 528.96,440.61 		"/>
		<g>
			<polygon class="st41" points="212.4,447.4 222.13,455.65 526.24,455.65 525.35,437.51 214.61,437.51 			"/>
		</g>
		<g>
			<polygon class="st43" points="289.43,351.27 528.17,351.27 523.75,448.57 213.36,448.57 			"/>
		</g>
		<g>
			<path class="st47" d="M526.02,331.22H322.16c0,0-17.69-1.33-11.06-16.81c6.63-15.48,22.56-30.07-6.19-33.17
				c-28.75-3.1-28.31,39.81-17.69,43.34l-62.8,77.84c0,0-10.61,15.04-25.65,15.92s-32.73,16.81-16.81,26.98
				c15.92,10.17,28.75,6.63,28.75,6.63l77.84-96.23c1.68-2.07,4.2-3.28,6.87-3.28h234.14l2.1-18.5L526.02,331.22z"/>
		</g>
		<g>
			<path class="st41" d="M809.53,680.02c0,0-4.02,11.4,6.48,21.23c0,0,5.14,5.36,6.26,13.85s16.09,15.64,33.97,14.08
				c17.88-1.56,0.22-59.44,0.22-59.44L809.53,680.02z"/>
		</g>
		<polygon class="st42" points="892.69,648.71 892.69,931.65 853.64,931.65 853.64,646.31 		"/>
		<g>
			<polygon class="st43" points="904.25,666.39 904.25,682 724.29,682 724.29,656.17 			"/>
		</g>
		<polygon class="st44" points="928.78,651.72 904.3,666.94 743.31,666.94 741.31,642.51 926.33,648.11 		"/>
		<polygon class="st42" points="928.78,636.1 928.78,651.72 748.82,651.72 748.82,625.89 		"/>
		<g>
			<polygon class="st41" points="935.39,630.5 928.78,636.1 740.76,636.1 741.36,623.78 933.89,623.78 			"/>
		</g>
		<g>
			<polygon class="st43" points="883.08,565.22 741.91,565.22 744.92,631.29 934.74,631.29 			"/>
		</g>
		<g>
			<path class="st45" d="M743.11,551.6h117.74c0,0,12.01-0.9,7.51-11.41s-15.32-20.42,4.2-22.53c19.52-2.1,19.22,27.03,12.01,29.43
				l42.65,52.86c0,0,7.21,10.21,17.42,10.81s22.23,11.41,11.41,18.32c-10.81,6.91-19.52,4.51-19.52,4.51l-52.86-65.35
				c-1.14-1.41-2.85-2.23-4.67-2.23h-138.3V550.1L743.11,551.6z"/>
		</g>
		<g>
			<path class="st41" d="M613.96,656.52c0,0-7.21,20.42,11.61,38.04c0,0,9.21,9.61,11.21,24.83c2,15.22,28.83,28.03,60.87,25.23
				c32.04-2.8,0.4-106.53,0.4-106.53L613.96,656.52z"/>
		</g>
		<polygon class="st42" points="694.76,665.23 502.23,665.23 507.43,616.88 696.26,615.68 		"/>
		<g>
			<polygon class="st46" points="695.26,634.9 505.03,634.9 505.03,507.15 704.07,512.35 			"/>
		</g>
		<polygon class="st42" points="748.7,474.81 748.7,960.78 691.2,960.78 691.2,470.68 		"/>
		<g>
			<polygon class="st43" points="765.73,500.24 765.73,523.24 504.48,523.24 504.48,485.21 			"/>
		</g>
		<polygon class="st44" points="801.85,478.64 766.62,501.05 503.91,501.05 504.33,465.65 798.32,473.34 		"/>
		<polygon class="st42" points="801.85,455.65 801.85,478.64 503.13,478.64 503.13,440.61 		"/>
		<g>
			<polygon class="st41" points="811.58,447.4 801.98,455.65 501.93,455.65 502.8,437.51 809.39,437.51 			"/>
		</g>
		<g>
			<polygon class="st43" points="734.55,351.27 495.81,351.27 500.23,448.57 810.62,448.57 			"/>
		</g>
		<g>
			<path class="st47" d="M497.96,331.22h203.86c0,0,17.69-1.33,11.06-16.81c-6.63-15.48-22.56-30.07,6.19-33.17
				s28.31,39.81,17.69,43.34l62.8,77.84c0,0,10.61,15.04,25.65,15.92s32.73,16.81,16.81,26.98c-15.92,10.17-28.75,6.63-28.75,6.63
				l-77.84-96.23c-1.68-2.07-4.2-3.28-6.87-3.28H494.42l-1.71-18.6L497.96,331.22z"/>
		</g>
		
			<rect x="466.58" y="466.33" transform="matrix(-1.836970e-16 1 -1 -1.836970e-16 1088.4464 74.0839)" class="st42" width="81.2" height="229.87"/>
		<g>
			<rect x="404.01" y="552.43" class="st41" width="206.34" height="57.67"/>
		</g>
	</g>
	<text transform="matrix(1 0 0 1 435.7456 595.751)" class="st34 st48 st49">逢考必过</text>
	<g class="st2">
		<line class="st50" x1="322.61" y1="360.8" x2="275.06" y2="443.15"/>
		<line class="st50" x1="512.74" y1="361.85" x2="512.74" y2="439.74"/>
		<line class="st50" x1="464.76" y1="362" x2="451.95" y2="443.1"/>
		<line class="st50" x1="417.33" y1="361.03" x2="394.28" y2="443.89"/>
		<line class="st50" x1="368.95" y1="360.35" x2="338.46" y2="443.35"/>
		<line class="st50" x1="699.71" y1="360.8" x2="747.27" y2="443.15"/>
		<line class="st50" x1="557.57" y1="362" x2="570.38" y2="443.1"/>
		<line class="st50" x1="605" y1="361.03" x2="628.05" y2="443.89"/>
		<line class="st50" x1="653.93" y1="360.35" x2="686.34" y2="443.35"/>
		<g>
			<line class="st50" x1="163.88" y1="575.98" x2="134.44" y2="625.99"/>
			<line class="st50" x1="196.17" y1="576.28" x2="176.54" y2="625.94"/>
			<line class="st50" x1="228.2" y1="576.28" x2="216.89" y2="625.54"/>
			<line class="st50" x1="258.34" y1="576.73" x2="254.28" y2="625.84"/>
		</g>
		<line class="st50" x1="859.84" y1="575.98" x2="889.28" y2="625.99"/>
		<line class="st50" x1="827.56" y1="576.28" x2="847.18" y2="625.94"/>
		<line class="st50" x1="795.52" y1="576.28" x2="806.83" y2="625.54"/>
		<line class="st50" x1="765.38" y1="576.73" x2="769.44" y2="625.84"/>
	</g>
</g>
<g class="st0">
	<g class="st2">
		<path class="st51" d="M558.52,859.54c-3.31,5.27-8.52,10.38-15.29,15.19c-67.4,47.94-288.99,67.32-322.57-60.87
			c-0.28-1.05-0.53-2.09-0.79-3.12c-34.98-138.74,43.11-192.33,43.11-192.33l72.55,71.19l171.93,43.66
			C507.46,733.27,594.78,801.78,558.52,859.54z"/>
		<path class="st52" d="M294.55,590.21c0,0-98.73,66.49-74.55,141.05s169.26,108.81,282.1,54.4S330.82,564.01,294.55,590.21z"/>
		<path class="st53" d="M308.65,637.84c0,0-34.25,18.13-32.24,52.39c2.01,34.25,6.04,19.14,15.11,46.34
			c9.07,27.2-5.04,42.31,32.24,43.32c37.28,1.01,32.24,35.26,77.58,26.19s112.84-1.01,96.72-47.35S308.65,637.84,308.65,637.84z"/>
		<path class="st54" d="M498.74,789.31l44.49,85.43c-67.4,47.94-288.99,67.32-322.57-60.87c-0.28-1.05-0.53-2.09-0.79-3.12
			c16.77,35.83,52.26,49.6,72.67,47.06c21.49-2.68,39.62-5.37,57.08,0.67c17.48,6.06,59.78,12.09,79.26-20.14
			C448.36,806.1,498.74,789.31,498.74,789.31z"/>
	</g>
	<g class="st2">
		<g>
			<path class="st55" d="M629.71,504.9c0,0,28.88,23.51,94.7,41.64c0,0,38.28,12.09,52.39,16.12c14.1,4.03,42.99,4.03,38.96,25.52
				c-4.03,21.49-7.39,38.96-47.02,28.88c-39.63-10.07-163.89-55.75-173.29-69.85C586.05,533.11,629.71,504.9,629.71,504.9z"/>
			<path class="st56" d="M612.41,478.16c0,0,3.02,9.57-6.04,27.71c-9.07,18.13-1.51,27.71,13.6,35.26
				c15.11,7.56,50.88,8.06,70.02,24.18c19.14,16.12,52.89,8.56,55.41,14.1c2.52,5.54-27.71,12.59-27.71,12.59l-51.89-13.1
				l-88.66-26.7l-15.62-21.16C561.53,531.05,548.44,505.86,612.41,478.16z"/>
			<path class="st57" d="M633.73,504.9l-21.72,31.47l-15.05,21.8l-2.17,3.16l-8.48-6.35L570.36,543l-18.57-13.91
				c0,0,14.78-42.32,57.77-51.04l0.89,0.99l2.43,2.7L633.73,504.9z"/>
			<path class="st58" d="M612.01,536.37l-15.05,21.8l-10.65-3.2l-9.15-2.76l-6.79-9.21l-8.82-11.94c0,0-12.82-24.66,48.91-52.03
				c0.65-0.3,1.3-0.57,1.97-0.87c0,0,0.37,1.2,0.45,3.57c0.16,4.3-0.65,12.43-6.51,24.13C599.08,520.42,602.54,529.46,612.01,536.37
				z"/>
			<path class="st59" d="M304.62,673.49c0,0-4.03,55.75,21.49,72.54s69.85,31.57,173.96,29.55c0,0,18.13,2.02,38.96-7.39
				c20.82-9.4-54.4-86.64-54.4-86.64l-18.13-22.16L304.62,673.49z"/>
			<path class="st60" d="M453.66,703.22c-3.56-15.83,1.07-32.68,13.04-43.63c3.34-3.05,7.01-5.4,10.87-6.24
				c15.45-3.36,54.74,0,54.74,0L689.49,697l108.81,197.47l-88.66,52.39c0,0-175.3-8.06-191.42-78.58
				c-16.12-70.52-3.69-72.54-26.53-76.57C475.08,788.77,460.42,733.28,453.66,703.22z"/>
			<path class="st59" d="M827.75,867.75c-20.91,17.86-70.22,74.42-82.87,89.06c-1.8,2.07-4.74,2.74-7.26,1.66l-64.26-27.74
				c-77.89-35.4-101.81-64.24-107.67-87.92c-8.07-32.48,17.76-55.22-15.25-71.94c-57.08-28.88-37.61-112.84-37.61-112.84
				c24.84-38.28,208.37-46.68,208.37-46.68s-40.8,32.75,4.54,58.44c29.54,16.73,46.05,40.72,47.27,75.29
				c0.47,13.44-1.34,28.45-5.62,45.28c-13.55,53.27,41.29,68.84,58.99,72.21C828.84,863.04,829.65,866.13,827.75,867.75z"/>
			<path class="st59" d="M558.51,510.95c0,0-3.36,21.49,20.82,33.58c24.18,12.09,113.68,14.61,119.72,42.15
				c6.04,27.54-82.11,27.71-82.11,27.71l-63.14-35.6l-6.72-31.57L558.51,510.95z"/>
			<path class="st15" d="M715.68,585.67c0,0,51.38-21.66,56.92-22.16c5.54-0.5,39.8,16.12,48.36,41.31
				c8.56,25.19-118.38,0.5-118.38,0.5L715.68,585.67z"/>
			<path class="st55" d="M817.44,637.56c-26.2,4.02-52.38-7.06-86.63-11.09c-28.63-3.35-124.06,15.07-154.68,21.23
				c-6.04,1.22-9.55,1.95-9.55,1.95l-13.1-38.3c0,0,12.98-4.95,28.67-10.16c4.68-1.58,9.61-3.18,14.52-4.66
				c12.57-3.81,24.9-6.96,32.38-7.34c20.14-1.01,50.37-11.09,71.54-9.08c21.15,2.01,111.83,1.01,117.87,11.09
				c1.4,2.33,3.49,5.84,5.56,9.92l0.02,0.02C830.93,614.71,837.58,634.46,817.44,637.56z"/>
			<path class="st61" d="M487.98,667.79c-100.74,75.57-172.62,18.47-180,12.77c-7.4-5.72-8.07-31.23-8.07-31.23
				c-8.56-8.19-8.6-15.61-7.02-20.52c1.18-3.75,3.33-6.02,3.33-6.02c-2.98-3.99-3.02-14.7-2.57-22.75c0.34-5.54,0.89-9.83,0.89-9.83
				l123.92,2.01l-6.16,24.58l-5.94,23.77c0,0,16.12-4.28,36.15-8.29C489.8,622.78,558.77,614.69,487.98,667.79z"/>
			<path class="st62" d="M470.36,666.56c-40.82,11.58-94.21-23.68-119.9-33.26c-25.69-9.57-36.78,9.59-47.87,6.06
				c-3.51-1.12-6.83-5.33-9.71-10.56c1.18-3.75,3.33-6.02,3.33-6.02c-2.98-3.99-3.02-14.7-2.57-22.75l61.83-8.54
				c0,0,27.8,11.34,56.82,25.31c10.32,4.95,20.78,10.24,30.21,15.49C469.36,647.17,487.81,661.61,470.36,666.56z"/>
			<path class="st56" d="M817.44,637.56c-26.2,4.02-52.38-7.06-86.63-11.09c-28.63-3.35-124.06,15.07-154.68,21.23l-8.03-29.5
				l14.05-17.01l5.09-6.18l9.43,1.52l6.18,1.01c0,0-12.07,9.06-6.04,20.66c6.04,11.58,10.58,11.58,18.13,8.05
				c7.56-3.53,11.09-7.04,30.23-5.03s30.74-9.57,67-11.6c36.09-2.01,114.08,31.92,111.87-8.46
				C830.93,614.71,837.58,634.46,817.44,637.56z"/>
			<path class="st63" d="M581.46,649.4c-31.17,10.58-57.43,16.12-79.61,18.27c-58.89,5.76-88.96-12.25-105.02-22.71
				c-14.25-9.25-25.75-23.12-32.12-31.8c-3.51-4.77-5.47-7.99-5.47-7.99c23.54,5.82,48.42-13.67,69.65-2.21
				c8.82,4.77,18.63,7.95,28.87,9.94c22.67,4.4,47.51,2.98,68.7-0.18c29.32-4.34,51.69-11.98,51.69-11.98L581.46,649.4z"/>
			<path class="st64" d="M571.11,625.76c-5.03,15.09-18.64,6.53-35.77,26.69c-6.98,8.21-20.22,12.75-33.48,15.21
				c-58.89,5.76-88.96-12.25-105.02-22.71c-14.25-9.25-25.75-23.12-32.12-31.8l93.05-0.26l68.7-0.18l25-0.06
				C551.45,612.66,576.14,610.65,571.11,625.76z"/>
			<path class="st65" d="M827.75,867.75c-20.91,17.86-70.22,74.42-82.87,89.06c-1.8,2.07-4.74,2.74-7.26,1.66l-64.26-27.74
				c-77.89-35.4-101.81-64.24-107.67-87.92c9.61,16.06,26.36,31.69,55.28,33.8c61.95,4.54,43.82-18.13,77.07-12.07
				c33.25,6.04-13.59-45.34-6.04-77.09c7.56-31.73,28.71,33.25,37.78,40.8c9.06,7.56,28.71-24.17,19.63-39.28
				c-6.27-10.46,14.94-23.08,23.6-43.88c0.47,13.44-1.34,28.45-5.62,45.28c-13.55,53.27,41.29,68.84,58.99,72.21
				C828.84,863.04,829.65,866.13,827.75,867.75z"/>
		</g>
		<g>
			<g>
				<path class="st66" d="M333.5,362.01c-20.51,23.69,131.48,100.75,131.48,100.75S447.35,230.53,333.5,362.01z"/>
				<g>
					<path class="st67" d="M459.78,339.68c0,0,14.1-2.69,15.45,61.79s-3.36,94.03-3.36,94.03l33.58,20.82
						c0,0,16.12-15.45,15.45-44.33c-0.67-28.88-16.12-98.06-55.08-151.8S459.78,339.68,459.78,339.68z"/>
					<path class="st68" d="M477.59,499.19c0,0-186.39-80.93-141.39-117.2c21.29-17.18,33.56-41.06,40.57-61.44
						c3.39-9.83,5.54-18.84,6.91-25.91c1.78-9.23,2.19-15.13,2.19-15.13c3.71-3.63,8.01-5.64,12.65-6.45
						c14.9-2.55,33.26,7.62,47.15,17.64c12.13,8.74,20.83,17.4,20.83,17.4l3.69,32.57l4.02,34.25c0.32,2.03,1.66,23.2,1.62,25.23
						l0.1,5.9L477.59,499.19z"/>
					<path class="st69" d="M362.39,349.7c0,0-5.71,17.46,92.02,59.11c0,0,18.81-50.37,13.77-90.34"/>
					<path class="st70" d="M475.93,406.07c-13.89-53.35-39.52-70.57-55.78-72.82c-19.47-2.68-19.47-28.88-26.87-38.28
						c-2.47-3.16-6-2.55-9.61-0.32c1.78-9.23,2.19-15.13,2.19-15.13c3.71-3.63,8.01-5.64,12.65-6.45l47.15,17.64
						c12.13,8.74,20.83,17.4,20.83,17.4l3.69,32.57l4.02,34.25c0.32,2.03,1.66,23.2,1.62,25.23L475.93,406.07z"/>
					<path class="st59" d="M613.58,476.03c0,0,0,11.4-8.72,18.8c-8.74,7.38-36.28-0.67-39.64,36.93c-0.18,1.91-0.37,3.53-0.59,4.85
						c-1.26,7.28-3.35,6.16-5.7,0.91c-0.67-1.52-1.36-3.39-2.05-5.5c-5.09-15.29-10.46-43.25-10.46-43.25l-37.61-93.36l-57.1-94.7
						l22.83,8.74c0,0,37.94-12.65,71.15,28.39c3.08,3.83,6.14,8.11,9.12,12.92C554.81,350.77,618.95,437.74,613.58,476.03z"/>
					<path class="st71" d="M339.13,345.64c0,0-18.64,7.3-31.11,30.22c-9.93,18.26-29.97,12.22-31.86,27.58
						c-3.34,27.17,14.36,60.07,52.64,82.24C367.09,507.84,284.73,446.39,339.13,345.64z"/>
					<path class="st15" d="M520.22,553.26c-3.35,14.11-10.73-0.67-10.73-0.67s-2.9-0.89-7.99-2.56
						c-29.71-9.71-134.07-45.58-171.36-81.72c-15.88-15.37-24.66-34.74-25.63-54.4c-1.72-34.45,20.5-69.88,70.59-86.75
						c-1.32,0.85-46.23,29.54-41.61,44.1c4.42,13.85,75.43,63.63,120.83,88.65c6.31,3.49,12.27,7.62,17.82,12.25l33.68,31.84
						l12.86,12.17l0.87,0.83C519.55,516.99,523.58,539.17,520.22,553.26z"/>
					<path class="st64" d="M518.68,516.16c-0.73,15.47-3.83,34.03-3.83,34.03l-13.36-0.18c-29.71-9.71-134.07-45.58-171.36-81.72
						c-15.88-15.37-24.66-34.74-25.63-54.4c5.37,11.76,15.96,30.76,29.65,34.86c20.16,6.06,32.24,3.37,46.35,15.45
						c14.11,12.09,26.2,26.2,56.43,30.23c29.42,3.93,41.15,26.09,60.74,1.72L518.68,516.16z"/>
					<path class="st60" d="M613.58,476.03c0,0,0,11.4-8.72,18.8c-8.74,7.38-36.28-0.67-39.64,36.93c-0.18,1.91-0.37,3.53-0.59,4.85
						c-2.43,0.65-4.4,0.99-5.7,0.91c-0.95-0.04-1.54-0.3-1.76-0.77c-0.51-1.16-0.59-2.78-0.3-4.74c1.2-8.15,8.82-21.78,16.42-28.85
						c9.39-8.74-3.37-30.9-13.44-51.04c-10.08-20.16-2.68-26.87,0-25.53c2.68,1.34,20.82,24.84,14.11-15.45
						c-5.07-30.4-20.83-60.41-28.27-73.32c3.08,3.83,6.14,8.11,9.12,12.92C554.81,350.77,618.95,437.74,613.58,476.03z"/>
					<path class="st71" d="M463.14,319.64c0,0,78.46,144.45,44.33,186.19c-0.24,0.3-0.3,0.7-0.11,1.03
						c0.95,1.73,3.63,7.63,1.33,16.05c-2.76,10.1-4.14,22.88,2.76,32.98c6.9,10.1,36.58,28.94,36.58,28.94
						S617.38,509.79,463.14,319.64z"/>
					<path class="st60" d="M598.37,601.4c-4.7,4.85-11.01,8.9-18.64,12.23c-65.11,28.43-224.86,4.87-267.05-7.3
						c-52.38-15.11-34.25-49.36-43.33-71.54c-9.06-22.16-3.02-50.37,1.01-71.52c4.04-21.17,5.8-59.82,5.8-59.82
						c6.81,79.22,60.71,47.73,112.09,81.98c51.38,34.25,75.57,42.32,106.8,54.42c23.12,8.96,72.69,26.42,98.73,36.01
						C639,592.52,608.04,591.37,598.37,601.4z"/>
					<circle class="st15" cx="454.61" cy="411.54" r="6.67"/>
					<path class="st72" d="M579.73,613.63c-65.11,28.43-224.86,4.87-267.05-7.3c-52.38-15.11-34.25-49.36-43.33-71.54
						c-9.06-22.16-3.02-50.37,1.01-71.52c4.04-21.17,5.8-59.82,5.8-59.82s0.26,39.95,3.61,51.38c3.35,11.4,14.78,46.35,12.77,76.57
						c-2.01,30.21,32.91,32.91,55.74,51.71c22.85,18.8,105.46,8.72,142.39,12.09c36.95,3.35,58.44,21.49,83.3,18.8
						C576.31,613.75,578.21,613.63,579.73,613.63z"/>
				</g>
			</g>
			<g>
				
					<ellipse transform="matrix(0.9033 -0.429 0.429 0.9033 -12.7534 154.9583)" class="st73" cx="337.37" cy="105.77" rx="38.79" ry="40.8"/>
				<path class="st73" d="M488.49,160.01c0,0,6.04-33.75-15.11-49.87s-43.57-30.22-102.51-4.03s-66.75,97.22-66.75,97.22
					s-15.62,122.41,105.79,78.08s60.95-118.88,60.95-118.88L488.49,160.01z"/>
				<path class="st55" d="M509.7,260.01c0.34,0.71,0.99,1.03,1.54,1.42c0.85,0.57,1.5,1.3,0.51,3.87c0,0-3,5.03-2.49,6.29
					c0.51,1.26,3.33,2.51,2.01,7.44c-0.16,0.55-0.3,1.07-0.43,1.54c-2.51,8.4-3.59,4.54-1.4,16.42c0.22,1.24,4.3,10.46-10.71,17.01
					c-16.87,7.36-54.57,18.31-95.12-22c0,0-25.95-8.56-26.95-31.23s20.89-23.68,28.71-13.1c0,0-7.71-34.59,13.77-41.97
					c0,0-0.34-17.15,18.8-36.28c19.14-19.14,48.36-20.82,54.08-9.39c5.7,11.4,9.06,32.24,7.71,46.01
					c-1.34,13.75,15.25,31.04,16.45,32.81c3.89,5.68-1.44,9.83-7.22,14.44C505.38,256.16,509.7,260.01,509.7,260.01z"/>
				<path class="st73" d="M483.41,206.8c-0.73-0.77-1.69-1.25-2.74-1.38c-3.71-0.44-13.59-0.8-26.94,4.96
					c-17.13,7.39-18.05,13.77-18.05,13.77s16.37-10.41,22.08-11.08c5.71-0.67,16.12-5.71,23.84-3.36
					C487.22,211.42,485.03,208.52,483.41,206.8z"/>
				<path class="st74" d="M484.54,228.1c0,0-15.2-7.02-31.65,10.11"/>
				<path class="st75" d="M511.76,265.29c0,0-3,5.03-2.49,6.29c0.51,1.26,3.33,2.51,2.01,7.44c-0.16,0.55-0.3,1.07-0.43,1.54h-0.02
					c0,0-5.72,1.52-12.77-5.21l-1.68-2.84c0,0,6.37-4.36,10.75-7.89c2.11-1.72,3.31-2.76,4.1-3.2
					C512.09,262,512.74,262.73,511.76,265.29z"/>
				<path class="st74" d="M496.77,273.29c7.79,0.78,12.54-1.82,12.54-1.82"/>
				
					<ellipse transform="matrix(0.9833 -0.1822 0.1822 0.9833 -40.0202 87.4191)" class="st76" cx="455.77" cy="261.52" rx="19.89" ry="14.92"/>
				<path class="st77" d="M429.93,160.95c0,0-21.28,30.33-11.26,45.6c10.02,15.26-9.83,28.55-6.93,43.9
					c2.9,15.35,13.87,26.9,4.33,44.19"/>
				<path class="st77" d="M399.33,228.8c0,0,10.58,23.93,10.07,39.04c-0.61,18.44-12.43,19.73-10.07,30.14
					c2.35,10.41,6.38,10.41,3.02,18.81"/>
				<path class="st77" d="M380.1,287.74c0,0-15.72,2.38-13.4,16.92c2.32,14.54-0.67,15.86-3.97,17.1"/>
				<path class="st77" d="M371.62,286.1c0,0,10.41-1.34,11.08,11.08s-10.75,16.46-10.41,20.49"/>
				<path class="st77" d="M371.66,287.36c0,0,4.03,9.4,11.75,16.79c7.72,7.39-8.4,16.46-8.4,16.46"/>
			</g>
		</g>
	</g>
</g>
<g class="st0">
	<path class="st34" d="M524.2,201.35c0,0-38.76,151.41-53.44,62.35c-3.92-23.83-17.76-39.58-35.92-49.85
		c-28.63-16.22-68-18.84-96.24-18.15c-20.03,0.47-34.47,2.62-35.45,2.77C453.13,140.56,524.2,201.35,524.2,201.35z"/>
	<g class="st2">
		<g>
			<path class="st78" d="M746.78,324.04c0.82,0.1,1.42,0.22,2.09,0.36c0.66,0.12,1.29,0.3,1.93,0.46c1.27,0.35,2.52,0.71,3.74,1.17
				c2.46,0.85,4.8,1.96,7.1,3.14c4.56,2.42,8.73,5.52,12.38,9.11c0.96,0.84,1.78,1.83,2.65,2.77l1.28,1.42
				c0.43,0.47,0.79,1,1.18,1.5c0.77,1.01,1.56,2.01,2.3,3.04l2.05,3.2c0.33,0.54,0.71,1.05,0.99,1.61l0.88,1.68l1.75,3.34l1.66,3.22
				l0.83,1.61l0.95,1.54l1.91,3.08l2.15,2.91c0.68,1,1.51,1.88,2.3,2.79c0.81,0.9,1.56,1.85,2.47,2.64
				c3.39,3.43,7.39,6.27,11.78,8.3c4.39,2.03,9.19,3.21,14.07,3.36c4.88,0.16,9.8-0.71,14.39-2.51c-4.5,2.02-9.42,3.14-14.4,3.21
				c-4.97,0.09-9.98-0.89-14.62-2.78c-4.65-1.88-8.95-4.65-12.66-8.05c-0.99-0.79-1.82-1.73-2.71-2.62
				c-0.87-0.9-1.78-1.79-2.54-2.79l-2.38-2.93l-2.13-3.11l-1.06-1.56l-0.94-1.63l-1.89-3.26l-1.83-3.12l-0.91-1.55
				c-0.3-0.52-0.68-0.99-1.01-1.48l-2.07-2.93c-0.75-0.93-1.53-1.83-2.3-2.75c-0.39-0.45-0.74-0.93-1.17-1.35l-1.26-1.26
				c-0.85-0.83-1.64-1.72-2.58-2.45c-3.53-3.16-7.49-5.82-11.74-7.82c-2.14-0.97-4.3-1.88-6.53-2.53c-1.11-0.36-2.24-0.63-3.36-0.88
				c-0.56-0.11-1.12-0.24-1.68-0.32c-0.54-0.09-1.15-0.17-1.56-0.2L746.78,324.04z"/>
		</g>
		<path class="st79" d="M312.95,600.84c0,0-72.66,113.98,84.06,189.49c0,0-55.56,7.12-74.09-5.7c0,0-1.42,74.09,39.89,111.13
			C362.82,895.76,218.92,803.16,312.95,600.84z"/>
		<path class="st15" d="M789.89,301.38c-1.73,4.89-4.04,9.82-6.88,14.77c-18.28,31.77-58.46,63.78-105.74,89.9
			c-19.87,10.99-40.98,20.93-62.26,29.35c-3.79,1.51-7.61,2.96-11.4,4.37c-31.57,11.68-63.04,19.9-90.81,23.12
			c-0.78,0.09-1.58,0.19-2.36,0.26c-3.68,0.41-7.31,0.71-10.84,0.93c-9.8,0.6-19.18,1.64-28.16,3.14c-4.56,0.74-9,1.62-13.36,2.6
			c-8.91,2.01-17.39,4.48-25.46,7.4c-112.72,40.53-146.72,165.58-146.72,298.86c0,0-25.65-62.68-28.5-149.6
			c0,0-3.03-41.89,2.38-99.94c3.92-42.11,12.31-92.76,29.54-142.07c2.83-8.07,5.9-16.13,9.21-24.11
			c32.85-78.94,90.94-150.13,193.04-171.42c5.95-1.25,12.05-2.31,18.32-3.2c30.34-4.33,64.28-4.5,102.27,0.5
			c6.96,0.91,13.67,1.88,20.16,2.9c58.16,9.1,98.25,22.23,123.92,37.87c2.6,1.6,5.08,3.22,7.38,4.85
			C792.35,252.27,798.67,276.45,789.89,301.38z"/>
		
			<ellipse transform="matrix(0.9976 -0.0696 0.0696 0.9976 -15.7978 44.9185)" class="st78" cx="636.31" cy="249.03" rx="30.52" ry="18.04"/>
		<ellipse transform="matrix(0.9976 -0.0696 0.0696 0.9976 -15.8451 45.0785)" cx="638.58" cy="249.79" rx="18.61" ry="11"/>
		<path class="st15" d="M510.44,463.15c-14.77,56.51,4.72,113.44,5.15,114.75c-13.93-11.03-38.61-51-53.66-95.72
			c-1.38-4.07-2.68-8.2-3.85-12.35c-2.25-7.7-4.13-15.48-5.58-23.19c-7.33-38.73-3.83-76.32,23.01-98.01
			c66.66-53.87,162.23,8.63,162.23,8.63C555.66,373.4,522.19,418.14,510.44,463.15z"/>
		<path class="st80" d="M441.97,211.89c-0.99,0.99-3.5,1.62-7.12,1.95c-28.63-16.22-68-18.84-96.24-18.15
			c20.11-8.3,52.57-18.86,60.3-4.69c11.4,20.89,17.09,1.26,25.33,5.06C432.46,199.86,450.21,203.67,441.97,211.89z"/>
		<path class="st78" d="M462.54,273.63c17.11,49.4-61.74,36.1-103.53,66.5c-16.03,11.66-39.64,18.71-60.49,20.24
			c32.85-78.94,90.94-150.13,193.04-171.42C479.8,199.73,448.54,233.17,462.54,273.63z"/>
		<g>
			<path class="st78" d="M690.19,210.44l0.29-0.05c0.14-0.02,0.29-0.06,0.46-0.11c0.33-0.09,0.65-0.17,0.99-0.33
				c0.68-0.23,1.35-0.6,2.02-0.95c0.67-0.36,1.3-0.84,1.96-1.25c0.62-0.49,1.23-1.01,1.84-1.51c0.6-0.52,1.14-1.14,1.72-1.71
				c0.59-0.55,1.09-1.21,1.61-1.85c0.5-0.65,1.06-1.26,1.53-1.95l1.38-2.1c3.61-5.67,6.09-12.17,8.09-18.77l1.41-5
				c0.4-1.69,0.75-3.39,1.13-5.09c0.82-3.38,1.29-6.85,1.86-10.29l0.85-5.27c0.19-0.89,0.36-1.79,0.58-2.67
				c0.25-0.88,0.44-1.77,0.74-2.64c1.11-3.49,2.66-6.89,4.88-9.87c1.08-1.5,2.34-2.88,3.71-4.12c1.36-1.25,2.87-2.34,4.45-3.28
				c1.58-0.95,3.24-1.73,4.96-2.36c1.71-0.64,3.46-1.14,5.23-1.5c7.1-1.47,14.34-1.16,21.35-0.13c7.02,1.06,13.89,2.86,20.59,5.09
				c6.69,2.25,13.26,4.88,19.59,7.98c-6.43-2.89-13.06-5.3-19.8-7.32c-6.74-2-13.61-3.56-20.56-4.37
				c-6.93-0.79-14.01-0.83-20.7,0.79c-1.67,0.4-3.3,0.92-4.87,1.57c-1.58,0.63-3.09,1.41-4.5,2.32c-1.42,0.9-2.75,1.93-3.95,3.11
				c-1.21,1.16-2.29,2.44-3.23,3.82c-1.92,2.74-3.23,5.89-4.14,9.14c-0.25,0.81-0.4,1.65-0.6,2.47c-0.17,0.83-0.3,1.67-0.46,2.51
				l-0.66,5.19c-0.47,3.52-0.83,7.07-1.55,10.57c-0.33,1.75-0.63,3.51-0.98,5.26l-1.28,5.22c-1.86,6.92-4.21,13.81-7.96,20.19
				l-1.45,2.37c-0.49,0.79-1.1,1.51-1.65,2.27c-0.56,0.75-1.11,1.51-1.78,2.19c-0.65,0.69-1.26,1.42-1.96,2.08
				c-0.73,0.64-1.44,1.29-2.19,1.91c-0.81,0.56-1.58,1.17-2.44,1.68c-0.87,0.5-1.74,1-2.72,1.38c-0.46,0.22-0.98,0.38-1.5,0.54
				c-0.25,0.08-0.52,0.16-0.82,0.22c-0.29,0.06-0.54,0.13-1.01,0.18c-1.53,0.16-2.89-0.94-3.06-2.47c-0.15-1.45,0.83-2.75,2.24-3.02
				L690.19,210.44z"/>
		</g>
		<circle class="st15" cx="625.73" cy="257.72" r="6.49"/>
		
			<ellipse transform="matrix(0.8313 -0.5559 0.5559 0.8313 -88.4338 448.2122)" class="st78" cx="694.11" cy="369.78" rx="30.51" ry="18.58"/>
		<ellipse transform="matrix(0.8313 -0.5559 0.5559 0.8313 -87.7134 449.4462)" cx="696.5" cy="369.21" rx="18.6" ry="11.33"/>
		
			<ellipse transform="matrix(0.8347 -0.5507 0.5507 0.8347 -93.7906 436.2114)" class="st15" cx="679.77" cy="374.35" rx="8.53" ry="5.44"/>
		<path class="st81" d="M466.03,359.08c0,0,59.11-8.8,106.14,7.64c2.9,1.01,2.73,5.18-0.25,5.94
			c-35.79,9.12-164.09,42.42-203.4,60.86C368.52,433.52,416.64,370.2,466.03,359.08z"/>
		<path class="st79" d="M615.01,435.4c-35.34,14.01-71.09,23.88-102.21,27.49C521.49,447.84,557.4,395.03,615.01,435.4z"/>
		<path class="st80" d="M313.42,425.59c-19.94,23.75-39.88,17.11-35.14,48.45c2.85,18.79-7.63,44.75-18.51,52.49
			c3.92-42.11,12.31-92.76,29.54-142.07C297.05,387.87,331.18,404.48,313.42,425.59z"/>
		<path class="st78" d="M612.62,316.37c0,0-3.8,32.29-28.49,37.04c-24.7,4.75-42.74-18.05-30.39-18.05
			c12.35,0,29.44,0.95,32.29-13.3C588.88,307.83,607.87,299.28,612.62,316.37z"/>
		<g>
			<path class="st78" d="M764.91,243.56c3.94,2.93,7.41,6.52,10.39,10.47c2.98,3.95,5.47,8.31,7.23,12.97
				c1.75,4.66,2.78,9.63,2.8,14.61c0.1,4.98-0.93,9.93-2.69,14.5c0.47-2.41,1-4.79,1.14-7.22c0.25-2.41,0.25-4.83,0.1-7.23
				c-0.14-2.4-0.5-4.78-1.02-7.12c-0.49-2.35-1.21-4.65-2.07-6.89c-1.66-4.51-4-8.76-6.67-12.79c-1.35-2.01-2.79-3.96-4.33-5.85
				C768.28,247.1,766.63,245.3,764.91,243.56z"/>
		</g>
		<path class="st80" d="M677.27,406.04c-19.87,10.99-40.98,20.93-62.26,29.35c-3.79,1.51-7.61,2.96-11.4,4.37
			c-5.02-2.4-8.44-6.21-5.23-12.26c0,0-5.71-19.96,15.2-22.8c20.89-2.85,30.39,17.09,39.88,4.74
			C660.81,399.91,672.71,402.29,677.27,406.04z"/>
		<g>
			<path class="st78" d="M337.17,456c-7.94,11.7-15.19,23.74-21.9,36.05c-6.66,12.32-12.72,24.94-17.77,37.94
				c-2.62,6.47-4.82,13.08-6.85,19.74c-2.13,6.64-3.63,13.44-5.1,20.25l-0.97,5.14l-0.78,5.17c-0.13,0.86-0.28,1.72-0.39,2.59
				l-0.28,2.6c-0.17,1.74-0.42,3.47-0.53,5.22c-0.64,6.98-0.65,13.99-0.52,21.07c-1.36-6.94-2.09-14.04-2.22-21.17
				c0-7.12,0.33-14.28,1.39-21.34c0.19-1.78,0.54-3.53,0.82-5.29c0.31-1.76,0.61-3.52,1.01-5.26l1.15-5.23l1.33-5.19
				c1.92-6.88,4.15-13.67,6.74-20.32c2.67-6.62,5.55-13.14,8.74-19.5c3.26-6.33,6.68-12.57,10.47-18.59
				C319.03,477.81,327.41,466.27,337.17,456z"/>
		</g>
		<path class="st80" d="M471.43,467.22c-0.22,0.52-0.5,1.06-0.82,1.6c-3.92,6.77-7.05,10.53-8.69,13.36
			c-1.38-4.07-2.68-8.2-3.85-12.35c-8.91,2.01-17.39,4.48-25.46,7.4c-2.01-6.47-1.36-8.11,8.09-12.69
			c14.71-7.12,5.23-13.76,10.45-17.09c0.47-0.3,0.91-0.56,1.34-0.82c0.1-0.06,0.2-0.11,0.3-0.17c3.84-2.12,8.6-1.67,12,1.09
			C469.6,451.44,475.48,458.4,471.43,467.22z"/>
		<path class="st82" d="M632.09,194.8c-19.94,11.4-18.51-8.56-37.03,15.68c-18.53,24.22-55.56,12.82-55.56,12.82
			s-1.92-0.71-5.23,2.38c-3.33,3.09-1.43,19.46-13.54,10.19c-12.11-9.24,7.37-9.73-6.88-36.79c-2.64-5.02-3.81-9.47-3.96-13.34
			c30.34-4.33,64.28-4.5,102.27,0.5c6.96,0.91,13.67,1.88,20.16,2.9C634.84,191.17,635.06,193.11,632.09,194.8z"/>
		
			<ellipse transform="matrix(0.4101 -0.912 0.912 0.4101 2.8653 595.3712)" class="st80" cx="461.68" cy="295.47" rx="12.39" ry="9.18"/>
	</g>
</g>
<g class="st0">
	<polygon class="st83" points="538.15,572.29 476.42,569.41 478.48,541.01 534.86,538.54 548.03,567.76 	"/>
	<g class="st2">
		<g>
			<g>
				<path class="st84" d="M613.36,564.14v331.93c0,17.99-14.61,32.58-32.6,32.58h-96.74c-12.33,0-23.06-6.85-28.61-16.94
					c-2.53-4.63-4-9.98-4-15.64V564.14H613.36z"/>
				<path class="st85" d="M597.7,597.34c-14-22.15-26.8-20.98-51.3-9.34c-24.48,11.67-19.82-9.32-34.98-5.82
					c-15.16,3.49-8.15,36.14-34.98,50.14c-14.73,7.69-21.71,24.18-25.02,37.47v-99.71l3.11-5.94h145.99
					C603.61,587.06,605.3,609.35,597.7,597.34z"/>
				<g>
					<path class="st86" d="M357.6,518.96c-2.03,4.09-4.32,7.88-6.85,11.39c-31.42,44.25-96.03,44.61-98.82,28.59
						c0,0,0.16-0.37,0.46-1.03c5.53-11.87,59.2-122.97,128.36-97.7C453.79,486.88,385.18,463.5,357.6,518.96z"/>
					<path class="st87" d="M747.54,249.99c-31.74,17.54-9,71.56-36.53,104.09c-3.13,3.7-7.1,7.47-11.71,11.19
						c-35.89,29.02-110.58,56.19-130.85,41.83c-22.9-16.21-33.54-96.28,11.71-134.87c0,0,43.63-67.29,134.41-47.49
						c42.56,9.29,59.43,11.55,62.06,13.15C779.65,239.72,764.39,240.68,747.54,249.99z"/>
					<path class="st88" d="M747.54,249.99c-31.74,17.54-9,71.56-36.53,104.09c-3.13,3.7-7.1,7.47-11.71,11.19l-26.39,1.51
						l-41.39-6.42c0,0-25.66-50.71-0.3-32.92c25.37,17.76,54.8-17.22,58.59-37.31c3.79-20.11,6.12-4.38,22.44-10.5
						c16.32-6.12,2.92-16.32,21.87-30.59c13.95-10.55,33.33-11.42,42.51-11.14C779.65,239.72,764.39,240.68,747.54,249.99z"/>
					<path class="st89" d="M759.46,402.47c-6.83,28.38,32.56,62.92-40.09,83.68c-11.58,3.31-25.98,6.26-43.88,8.79
						C545.25,513.32,554.04,634.69,500,484.2c0,0,46.62-154.44,193.3-132.43c65.6,9.84,87.33,14.45,90.6,19.48
						C787.96,377.44,763.82,384.29,759.46,402.47z"/>
					<path class="st88" d="M759.46,402.47c-6.83,28.38,32.56,62.92-40.09,83.68c-46.12,0.23-112.24-8.17-144.98,12.08
						c-48.97,30.32-30.32-4.66-36.14-18.65c-5.84-13.97,53.63-53.61,81.6-58.29c27.99-4.66,45.48,19.82,68.79,22.15
						c23.31,2.35,20.98-6.99,43.13-45.46c14.68-25.46,38.02-27.95,52.13-26.71C787.96,377.44,763.82,384.29,759.46,402.47z"/>
					<path class="st86" d="M804.97,513.89c-0.05,3.42-1.07,2.44-3.22-0.23c-5.59-6.94-18.77-25.21-42.26-6.35
						c-32.51,26.12-59.02,47.86-210.37,49.41c0,0-24.96,29.52-8.95-21.94c0,0,11.23-49.36,52.42-79.02c8.33-6,17.92-11.19,28.88-15
						C686.49,418.11,805.67,469.04,804.97,513.89z"/>
					<path class="st90" d="M411.25,564.76c-29.22,96.65-134.75,64.5-133.86,57.19c0.89-7.28,24.96,1.6,35.44-44.84
						c8.38-36.99,34.09-64.11,44.18-73.59c2.58-2.42,4.13-3.7,4.13-3.7S440.46,468.11,411.25,564.76z"/>
					<path class="st91" d="M419.06,352.78c-1.05,4.11-2.63,8.56-4.61,13.13c-15.89,4.84-35.55,17.95-46.53,46.99
						c-0.09,0.18-0.16,0.37-0.23,0.57c-16.83,45.28-118.41,1.16-134.07,16.83c-6.64,6.64-14.61,14.82-19.34,15.41
						c-6.42,0.84-6.78-12.44,10.64-62.99c30.18-87.65,130.01-105.07,154.96-71.4C400.39,338.97,414.63,349.79,419.06,352.78z"/>
					<path class="st89" d="M429.82,353.7c0,0-1.69-0.32-4.57-1.1c-11.9-3.26-44.32-14.73-63.93-46.51
						c-24.38-39.48-42.95-38.31-68.5-29.02c-14.02,5.09-20.34-0.3-18.22-7.92c1.76-6.28,9.22-14.06,22.85-18.79
						c30.18-10.43,150.92-81.26,171.81,23.22C490.16,378.06,429.82,353.7,429.82,353.7z"/>
					<path class="st88" d="M465.96,337.74l-40.71,14.86c-11.9-3.26-44.32-14.73-63.93-46.51c-24.38-39.48-42.95-38.31-68.5-29.02
						c-14.02,5.09-20.34-0.3-18.22-7.92c6.23-5.5,19.75-12.35,49.11-15.37c52.86-5.43,46.65,48.97,66.08,53.63
						c19.43,4.66,34.98-6.99,42.74-13.22C440.3,287.99,465.96,337.74,465.96,337.74z"/>
					<path class="st92" d="M516.87,384.45c-69.75,63.75-68.63,4.63-60.34-18.01c8.27-22.65-73.75-60.92-34.84-144.5
						c20.82-44.77,17.42-76.81,9.48-89.78c-1.23-2.03-1.46-3.15-0.91-3.61c0.23-0.21,0.62-0.27,1.12-0.21
						c0.8,0.07,1.87,0.41,3.15,0.98c0.02,0,0.05,0,0.07,0.02c5.27,2.26,13.81,7.83,18.81,11.21c2.26,1.51,4.34,3.24,6.3,5.14
						c5.02,4.86,19.16,17.03,51.94,36.76c16.37,9.84,32.49,36.65,40.05,69.09C561.78,294.79,556.72,348.04,516.87,384.45z"/>
					<path class="st93" d="M367.92,412.9c-0.09,0.18-0.16,0.37-0.23,0.57c-16.83,45.28-118.41,1.16-134.07,16.83
						c-6.64,6.64-14.61,14.82-19.34,15.41c6.07-7.1,19.04-23.11,20.82-32.01c2.33-11.64,34.98-25.07,53.06-11.64
						c18.06,13.4,26.8-1.76,43.13,0C346.66,403.7,347.03,414.11,367.92,412.9z"/>
					<path class="st89" d="M471.53,402.28c0,0-26.14-69.45-115-54.51s-17.17,10.45-2.24,20.16c14.93,9.71-7.47,55.26,5.23,85.13
						c12.69,29.87,71.69,71.69,94.83,69.45S509.62,478.45,471.53,402.28z"/>
					<path class="st89" d="M358.69,511.65l-7.95,18.7c-31.42,44.25-96.03,44.61-98.82,28.59c0,0,0.16-0.37,0.46-1.03
						c10.64-3.84,29.89-14.02,38.11-38.68c11.64-34.98,27.97-32.08,32.65-28.56C327.8,494.16,358.69,511.65,358.69,511.65z"/>
					<path class="st94" d="M415.25,519.64c-5.69,4-11.85,6.64-18.31,8.15c-51.9,12.19-123.13-48.86-121.24-69.43
						c0,0,108.2-88.47,186.67,16.78C540.87,580.42,466.6,483.45,415.25,519.64z"/>
					<path class="st91" d="M551.69,251.55c-6,34.93-29.68,66.49-37.35,68.31c-12.24,2.9-1.76-1.16-2.33-2.92
						c-0.59-1.76-19.25-12.24-40.8-11.67c-21.58,0.59-32.08-16.9-41.99-32.63c-9.91-15.75,0.59-35.57,10.5-44.32
						c9.91-8.74,8.74-28.56,2.92-65.87c-3.56-22.67-8.81-30.91-12.4-33.91c-0.46-0.39-0.89-0.66-1.28-0.91
						c0.66,0.18,1.48,0.43,2.4,0.71c0.94,0.27,1.99,0.59,3.15,0.98c0.02,0,0.05,0,0.07,0.02c5.27,2.26,13.81,7.83,18.81,11.21
						c2.26,1.51,4.34,3.24,6.3,5.14c5.02,4.86,19.16,17.03,51.94,36.76C528.02,192.3,544.14,219.1,551.69,251.55z"/>
					<path class="st95" d="M616.69,429.91c-44.89,50.3-87.45,40.25-87.45,40.25s-0.78-1.07-2.08-3.15v-0.02
						c-7.74-12.47-33.72-60.37-21.14-125.3c14.7-75.85,94.43-157.88,109.14-151.67c3.61,1.53,4.61,3.79,4.2,6.99
						c-1.14,9.77-15.3,28.22-6.53,60.32C624.43,299.91,661.58,379.61,616.69,429.91z"/>
					<path class="st86" d="M616.69,429.91c-44.89,50.3-87.45,40.25-87.45,40.25s-0.78-1.07-2.08-3.15v-0.02
						c4.45-3.13,11.64-6.67,23.31-10.14c33.22-9.91,44.89,1.16,45.46-31.49c0.59-32.65,8.74-43.72,12.83-77.54
						c4.09-33.81-6.99-44.29-3.49-78.7c3.47-34.13-7.42-39.57,14.09-72.13c-1.14,9.77-15.3,28.22-6.53,60.32
						C624.43,299.91,661.58,379.61,616.69,429.91z"/>
					<path class="st96" d="M801.75,513.66c-5.59-6.94-18.77-25.21-42.26-6.35c-32.51,26.12-59.02,47.86-210.37,49.41
						c0,0-24.96,29.52-8.95-21.94c0,0,11.23-49.36,52.42-79.02c16.35-3.11,43.97-3.15,74.68,18.77
						c48.97,34.98,61.4,35.75,85.51,22.54C774.42,485.19,799.21,498.45,801.75,513.66z"/>
					<path class="st96" d="M539.98,549.53c-7.79,12.33-40.44-42.74-50.76-60.8c-1.96-3.47-3.13-5.57-3.13-5.57
						s-74.3-7.74-79.71-76.62c-0.71-9.16-0.48-17.38,0.55-24.77c1.05-7.83,2.95-14.77,5.43-20.91c0-0.02,0-0.05,0.02-0.07
						c12.83-31.76,41.17-43.11,49.68-53.22c0.02-0.05,0.05-0.07,0.05-0.07c11.6-13.93-4.66,16.23,0,36.37
						c4.63,20.11,42.42,32.99,63.45,57.65C570.3,453.93,549.27,534.82,539.98,549.53z"/>
					<path class="st97" d="M389.59,550.69c-17.49,14-44.29-11.64-47.22,6.42c-2.92,18.08-11.67,21.58-21.58,22.15
						c-9.91,0.59-4.06,20.41-19.82,33.81c-15.73,13.4-23.59,8.88-23.59,8.88c0.89-7.28,24.96,1.6,35.44-44.84
						c8.38-36.99,34.09-64.11,44.18-73.59C373.53,516.01,402.35,540.49,389.59,550.69z"/>
					<path class="st86" d="M437.94,472.61l-41.01,55.18c-51.9,12.19-123.13-48.86-121.24-69.43c0,0,22.95,31.12,41.6,31.12
						c18.65,0,16.32-9.32,33.24-5.23c16.9,4.06,18.65,13.97,31.46,10.48C394.63,491.28,436.62,473.15,437.94,472.61z"/>
					<path class="st97" d="M509.48,472.2c-3.33,9.79-10.75,14.91-20.25,16.53c-1.96-3.47-3.13-5.57-3.13-5.57
						s-74.3-7.74-79.71-76.62c-0.71-9.16-0.48-17.38,0.55-24.77c1.55-6.94,3.38-14,5.43-20.91c0-0.02,0-0.05,0.02-0.07
						c12.83-31.76,41.17-43.11,49.68-53.22c-1.14,1.62-24.52,35.66-10.11,69.04C466.73,410.8,524.25,428.68,509.48,472.2z"/>
					<path class="st98" d="M538.24,564.12c0,0,0-0.02-0.02-0.02c-1.14-0.84-38.84-27.65-74.27,30.64
						c-33.2,54.61-67.38,64.77-108.02,49.61c-0.05-0.02-0.07-0.02-0.07-0.02c-1.89-0.71-1.46-3.49,0.55-3.65
						c12.42-0.91,29.84-8.45,20.46-45.94c-13.93-55.73-30.18-127.7,38.31-148.59c45.3-13.81,83.5,4.16,104.82,43.11
						C530.94,509.18,537.45,534.62,538.24,564.12z"/>
					<path class="st85" d="M613.36,564.14v331.93c0,17.99-14.61,32.58-32.6,32.58h-96.74c-12.33,0-23.06-6.85-28.61-16.94
						c53.43,20.53,74.5-9.41,99.94-22.12c26.42-13.22-70.73-3.11-25.66-39.64c45.09-36.53,30.32-10.11,48.97-48.97
						c18.65-38.86-9.34-54.41-17.88-90.94s10.11-25.64,30.32-86.28c9.98-29.91-14.52-48.47-41.87-59.61H613.36z"/>
					<path class="st97" d="M728.64,548.82c-0.3,8.31-5.89,57.31-65.64,55.32c-12.65-0.43-28.24-8.84-45.57-17.88
						c-2.97-1.55-5.98-3.13-9.04-4.66c-20.82-10.53-43.68-20.23-66.69-17.49c-1.16,0.14-2.12,0.25-2.92,0.3
						c-2.83,0.18-3.61-0.55-3.33-4.61c0.27-4.22,1.42-8.95,3.33-13.88c0-0.02,0-0.05,0-0.05c8.17-21.17,30.18-45.92,56.65-48.75
						c9.02-0.96,18.54,0.64,28.22,5.78c62.03,32.95,60.05,55.53,94.87,36.28c0.75-0.41,1.46-0.8,2.1-1.16
						C728.87,533.38,729.19,533.34,728.64,548.82z"/>
				</g>
				
					<ellipse transform="matrix(0.6658 -0.7461 0.7461 0.6658 -500.1867 664.759)" class="st85" cx="491.99" cy="890.75" rx="13.6" ry="7.38"/>
				
					<ellipse transform="matrix(0.6658 -0.7461 0.7461 0.6658 -506.5085 675.0146)" class="st85" cx="500.28" cy="902.93" rx="5.47" ry="2.97"/>
				<path class="st96" d="M538.22,564.09c-1.14-0.84-38.84-27.65-74.27,30.64c-33.2,54.61-67.38,64.77-108.02,49.61
					c1.96,0.37,44.09,8.11,65.71-27.19C443.81,581.01,457.78,449.29,538.22,564.09z"/>
				<path class="st99" d="M520,489.25c-30.21-29.82-44.57-23.49-66.87-22.49c-25.64,1.16-18.65,15.16-53.63,26.8
					c-34.98,11.67-25.64,37.31-11.64,94.43c13.97,57.15-31.44,52.67-31.44,52.67c12.42-0.91,29.84-8.45,20.46-45.94
					c-13.93-55.73-30.18-127.7,38.31-148.59C460.48,432.33,498.68,450.3,520,489.25z"/>
			</g>
			<path class="st89" d="M608.38,581.61c-20.82-10.53-43.68-20.23-66.69-17.49c-1.16,0.14-2.12,0.25-2.92,0.3l-0.55-0.32
				c0,0-0.78-7.76,0.55-18.17c0-0.02,0-0.05,0-0.05c8.17-21.17,30.18-45.92,56.65-48.75c-3.74,5.27-10.85,13.01-12.88,20.16
				c-4.66,16.3,19.43,8.54,23.31,22.54c3.9,14,7.01,17.88-8.54,23.31C587.84,566.45,598.57,575.24,608.38,581.61z"/>
		</g>
		<path class="st93" d="M728.51,548.68c-0.3,8.31-5.89,57.31-65.64,55.32c-12.65-0.43-28.24-8.84-45.57-17.88
			c4.32-1.69,13.47-0.37,21.85,0.96c14.77,2.33,27.99-3.11,38.08-12.42c10.11-9.34,21.78-8.56,36.53-15.55
			c6.66-3.16,7.95-10.1,7.37-16.77c-0.28-3.22,1.67-6.41,4.83-7.1C728.85,534.61,728.89,537.84,728.51,548.68z"/>
	</g>
</g>
<g class="st0">
	<path class="st100" d="M721.5,277.31c0,0,15.11,8,20.55,21.92c5.43,13.92-13.25,29.55-17.32,28.87
		c-4.08-0.68-62.15,10.19-97.81-10.87l-3.4-13.58c0,0,3.99-10.21,0.81-20.39l82.06,4.42L721.5,277.31z"/>
	<path class="st101" d="M705.18,310.95c-18.24,4.23-65.28,8.86-78.77-21.63c-0.72-1.65-1.35-3.43-1.88-5.32
		c-0.63-2.25-0.03-4.68,1.59-6.37c3.79-3.96,11.51-10.72,19.49-9.99c2.12,0.2,5.99,0.52,10.85,1c20.67,1.88,59.7,5.79,65.05,8.66
		C728.13,280.9,725.05,306.36,705.18,310.95z"/>
	<path class="st102" d="M706.06,295.51c-14.29,15.6-41.1,4.39-55.03,5.43c-8.74,0.64-18.52-6.34-24.62-11.61
		c-0.81-1.87-1.52-3.89-2.08-6.06c-0.46-1.76-0.04-3.66,1.19-4.99c3.52-3.82,11.66-11.4,20.08-10.62c2.12,0.2,5.99,0.52,10.85,1
		c3.07,2.87,7.26,6.23,14.96,9.54C692.13,287.01,720.31,279.86,706.06,295.51z"/>
	<path class="st103" d="M150.93,712.44c7.77,7.77,30.74,20.15,26.67,24.22c-4.07,4.07-28.83,7.05-43.09-9.13
		c-7.27-8.24-9.09-17.73-5.02-21.8C133.56,701.67,143.16,704.67,150.93,712.44z"/>
	<path class="st104" d="M150.43,731.57c0,0,21.06,14.94,52.98-0.68c31.92-15.62,256.41-106.98,423.5-289.02l-0.34-40.08
		c0,0-8.15-12.57,1.02-37.02c9.17-24.45,33.96-27.17,33.96-27.17l-21.57-23.77l-31.41,52.98L298.17,611L150.43,731.57z"/>
	<path class="st105" d="M630.32,304.9c-2.57-1.96-6.27-0.87-7.4,2.16c-5,13.42-19.59,45.72-48.64,60.44
		c-37.19,18.85-72.34,67.75-95.77,87.62c-23.43,19.87-64.87,70.98-138.22,87.28s-110.04,43.47-153.51,85.58
		c-43.47,42.11-31.75,51.79-51.11,67.58c-19.36,15.79,10.19,38.21,18.34,37.19s63.17-19.36,129.9-51.45
		c66.74-32.09,274.41-153.17,322.64-282.9c0,0,7.47-25.13,19.02-42.11c11.55-16.98,17.83-37.53,14.43-42.45
		C638.14,311.15,633.85,307.59,630.32,304.9z"/>
	<path class="st103" d="M169.54,757.21c0,0-5.6,5.35-3.82,11.97c1.78,6.62,8.15,24.45,23.18,32.6l10.44-12.99l0.51-19.61
		l-22.92-14.26L169.54,757.21z"/>
	<path class="st103" d="M409.26,761.38c0,0,1.2,6.03,6.33,10.16c5.13,4.14,19.61,14.67,31.31,14.87l-4.23-13.43l-12.78-14.46
		l-19.05-1.63L409.26,761.38z"/>
	<path class="st106" d="M419.75,744.81c0,0,3.4,30.57,21.06,34.64c17.66,4.08,171.85-116.83,167.77-144s-48.23,17.66-48.23,17.66
		L419.75,744.81z"/>
	<path class="st104" d="M667.67,325.72c0,0,14.6,0,23.77,16.3s0,75.4-5.09,85.58c-5.09,10.19-4.08,213.96-234.34,318.9
		c0,0-115.81,49.92-155.21,54.68c-39.4,4.75-57.74-11.55-85.58-5.43c-27.85,6.11-21.06,5.77-21.06,5.77s-6.11,0.68,6.11-18
		c12.23-18.68,31.84-34.47,31.84-34.47l165.14-130.58C393.26,618.47,632.35,450.02,667.67,325.72z"/>
	<path class="st107" d="M658.67,318.08c-2.57-1.96-11.74-1.06-11.67,2.17c0.25,12.48,3.86,50.39-37.06,91.82
		c-29.3,29.66-64.19,82.27-87.62,102.14c-23.43,19.87-64.87,70.98-138.22,87.28c-73.36,16.3-110.04,43.47-153.51,85.58
		s-42.69,51.21-59.94,69.28c-7.13,7.47,16.64,6.62,25.64,27.17c3.3,7.52,121.41-33.79,188.15-65.89
		c66.74-32.09,201.73-93.06,265.92-260.15c0,0,7.47-25.13,19.02-42.11c11.55-16.98,1.7-84.73-1.7-89.66
		C665.82,323.04,662.2,320.77,658.67,318.08z"/>
	<path class="st103" d="M590.92,827.34c0,0-15.28,4.42-12.91,14.26s1.02,3.4,7.13,10.53c6.11,7.13,48.91,2.72,29.89-11.55
		S590.92,827.34,590.92,827.34z"/>
	<path class="st108" d="M730.93,336.68c0,0-12.31-10.34-7.12-15.46c5.18-5.12,11.65-5.25,21.64,2.98
		c8.66,7.13,92.75,51.88,106.98,70.05c21.62,27.61,52.9,93.03,41.99,179.68c-20.38,161.81-121.2,234.86-188.7,262.25
		c-35.15,14.26-71.07,16.41-77.18,15.54c-8.91-1.27-15.36-4.89-19.87-7.9c-3.82-2.55-24.31-11.5-12.48-21.91
		c23.77-20.9,40.09-27.45,101.09-90.22s106.76-137.26,107.6-193.65s-41.81-120.4-41.6-137.42
		C763.79,359.86,734.18,344.44,730.93,336.68z"/>
	<path class="st103" d="M362.7,860.96c0,0,2.04,6.11,2.04,12.57s4.08,21.74,20.38,19.36s9.51-32.6,9.51-32.6l-20.38-6.45
		C374.24,853.83,367.58,855.53,362.7,860.96z"/>
	<path class="st104" d="M675.91,335.91c0,0-2.8-9.42,3.06-13.75c5.86-4.33,11.97-10.95,24.71-8.66
		c12.74,2.29,19.36,6.11,20.63,19.36s9.42,41.52,27.76,55.53s90.85,79.3,28.36,238.24S564.09,853.49,481.56,878.96
		c0,0-20.72,4.75-46.53,5.09c-25.81,0.34-31.24,10.19-49.92,8.83c0,0,5.77-9.85,1.36-18c-4.42-8.15-17.32-19.7-23.77-13.92
		c0,0,45-67.58,71.49-84.9s21.4-19.36,90.68-72.85s125.15-120.73,133.98-176.43s21.06-107.32,29.21-122.26
		C696.2,389.57,678.03,344.06,675.91,335.91z"/>
	<path class="st107" d="M681.6,343.38c0,0-5.18-14.69,0.68-19.02c5.86-4.33,10.02-9.08,22.75-6.79c12.74,2.29,7.56,11.89,8.83,25.13
		c1.27,13.25,19.73,36.03,31.24,56.04c17.49,30.4,20.38,92.04-2.72,176.26c-43.13,157.28-207.67,234.06-274.46,263.14
		c-5.66,2.46-11.13,5.23-16.46,8.33c-17.97,10.45-61.5,34.87-65,28.42c-4.42-8.15-17.32-19.7-23.77-13.92c0,0,45-67.58,71.49-84.9
		s21.4-19.36,90.68-72.85s125.15-120.73,133.98-176.43s23.14-106.36,29.21-122.26C697.9,378.7,683.72,351.53,681.6,343.38z"/>
</g>
<g>
	<g>
		<path class="st109" d="M773.67,358.25c1.98-7.27,3.05-14.92,3.05-22.82c0-18.26-5.65-35.21-15.29-49.19
			c1.32-1.72,2.56-3.5,3.71-5.32c6.77-10.67,10.62-22.92,10.62-35.94c0-41.44-38.88-75.02-86.84-75.02
			c-8.38,0-16.49,1.03-24.15,2.95c-11.68,2.92-22.35,7.9-31.44,14.45c-5.65-6.61-12.29-12.36-19.68-17.03
			c-0.04-4.59-0.38-9.11-0.98-13.55c-7.14-52.23-51.91-92.46-106.1-92.46c-35.47,0-66.9,17.25-86.39,43.81
			c-3.02-0.26-6.05-0.39-9.13-0.39c-13.2,0-25.83,2.39-37.51,6.76c-13.12-7.96-28.52-12.54-44.99-12.54
			c-47.95,0-86.83,38.87-86.83,86.83c0,19.31,6.31,37.14,16.97,51.56c-20,2.85-35.38,20.04-35.38,40.82
			c0,8.42,2.54,16.25,6.87,22.79c-40.37,7.46-70.95,42.83-70.95,85.36c0,38.33,24.84,70.85,59.3,82.35
			c3.59,1.21,7.27,2.18,11.05,2.9c-7.75,9.06-12.15,19.43-12.15,30.45c0,35.56,45.87,64.4,102.46,64.4c7.77,0,15.36-0.55,22.64-1.59
			c15.73,22.26,41.63,36.8,70.95,36.8c22.16,0,42.36-8.31,57.7-21.97c6.87,0.79,13.85,1.23,20.93,1.23c1.47,0,2.95-0.02,4.42-0.06
			c19.65,22.99,48.84,37.56,81.45,37.56c35.47,0,66.9-17.26,86.39-43.82c3.02,0.26,6.05,0.39,9.13,0.39
			c51.41,0,94.35-36.22,104.71-84.54c23.79-14.11,39.53-38.53,39.53-66.33C817.72,397.58,799.96,371.84,773.67,358.25z
			 M316.07,440.64c0.22-0.29,0.42-0.6,0.65-0.89c0.06,0.29,0.1,0.58,0.17,0.87C316.62,440.63,316.34,440.64,316.07,440.64z"/>
		<path class="st110" d="M789.15,386.25c1.93-7.09,2.97-14.55,2.97-22.25c0-17.81-5.51-34.33-14.91-47.96
			c1.29-1.68,2.49-3.41,3.62-5.18c6.6-10.4,10.36-22.35,10.36-35.05c0-40.41-37.91-73.15-84.68-73.15c-8.17,0-16.07,1-23.55,2.88
			c-11.39,2.84-21.79,7.7-30.66,14.09c-5.51-6.45-11.98-12.06-19.19-16.61c-0.04-4.48-0.37-8.89-0.96-13.21
			c-6.96-50.93-50.62-90.15-103.45-90.15c-34.59,0-65.24,16.82-84.24,42.71c-2.94-0.25-5.9-0.38-8.9-0.38
			c-12.87,0-25.19,2.33-36.57,6.59c-12.8-7.77-27.8-12.23-43.87-12.23c-46.75,0-84.67,37.9-84.67,84.67
			c0,18.83,6.15,36.21,16.54,50.27c-19.51,2.78-34.5,19.54-34.5,39.81c0,8.21,2.47,15.85,6.7,22.22
			c-39.36,7.28-69.18,41.77-69.18,83.23c0,37.38,24.22,69.08,57.82,80.3c3.5,1.18,7.09,2.12,10.77,2.83
			c-7.56,8.83-11.85,18.95-11.85,29.69c0,34.68,44.73,62.8,99.9,62.8c7.58,0,14.97-0.53,22.08-1.55
			c15.33,21.71,40.59,35.89,69.18,35.89c21.61,0,41.31-8.1,56.26-21.42c6.7,0.77,13.5,1.2,20.41,1.2c1.44,0,2.88-0.02,4.31-0.05
			c19.16,22.41,47.63,36.63,79.42,36.63c34.59,0,65.24-16.83,84.24-42.72c2.94,0.25,5.9,0.38,8.9,0.38c50.13,0,92-35.32,102.1-82.43
			c23.2-13.76,38.54-37.57,38.54-64.68C832.11,424.6,814.79,399.51,789.15,386.25z M342.96,466.59c0.22-0.28,0.41-0.59,0.63-0.87
			c0.05,0.28,0.1,0.57,0.16,0.85C343.5,466.58,343.22,466.59,342.96,466.59z"/>
		<path class="st111" d="M767.94,405.34c1.84-6.76,2.83-13.87,2.83-21.21c0-16.97-5.25-32.72-14.21-45.72
			c1.22-1.6,2.38-3.25,3.45-4.94c6.29-9.91,9.87-21.3,9.87-33.41c0-38.51-36.14-69.73-80.71-69.73c-7.79,0-15.32,0.96-22.44,2.74
			c-10.86,2.71-20.77,7.34-29.22,13.43c-5.25-6.15-11.42-11.49-18.29-15.83c-0.04-4.27-0.35-8.47-0.91-12.59
			c-6.63-48.54-48.25-85.93-98.61-85.93c-32.97,0-62.18,16.03-80.3,40.71c-2.8-0.24-5.63-0.36-8.48-0.36
			c-12.27,0-24.01,2.22-34.86,6.28c-12.2-7.4-26.5-11.66-41.81-11.66c-44.56,0-80.7,36.13-80.7,80.7c0,17.95,5.87,34.52,15.77,47.92
			c-18.59,2.65-32.89,18.62-32.89,37.94c0,7.83,2.36,15.1,6.38,21.18c-37.52,6.93-65.94,39.81-65.94,79.33
			c0,35.63,23.09,65.85,55.11,76.54c3.33,1.12,6.76,2.02,10.27,2.7c-7.2,8.42-11.29,18.06-11.29,28.3
			c0,33.05,42.63,59.86,95.22,59.86c7.23,0,14.27-0.51,21.04-1.47c14.62,20.69,38.69,34.2,65.94,34.2c20.6,0,39.37-7.72,53.63-20.42
			c6.38,0.74,12.87,1.14,19.45,1.14c1.37,0,2.74-0.02,4.11-0.05c18.26,21.36,45.4,34.91,75.7,34.91c32.97,0,62.18-16.04,80.3-40.72
			c2.8,0.24,5.63,0.36,8.48,0.36c47.78,0,87.69-33.67,97.32-78.57c22.11-13.11,36.74-35.81,36.74-61.65
			C808.88,441.89,792.38,417.97,767.94,405.34z M342.65,481.92c0.21-0.27,0.39-0.56,0.6-0.83c0.05,0.27,0.09,0.54,0.16,0.81
			C343.15,481.91,342.89,481.92,342.65,481.92z"/>
		<path class="st112" d="M773.67,358.25c1.98-7.27,3.05-14.92,3.05-22.82c0-18.26-5.65-35.21-15.29-49.19
			c1.32-1.72,2.56-3.5,3.71-5.32c-6.76,2.84-13.07,6.32-18.82,10.33c-6.42-7.25-13.94-13.56-22.32-18.67
			c-0.44-42.38-24.08-79.38-59.23-99.67c-15.47-8.94-33.17-14.64-52.1-16.13c-3.31-0.27-6.66-0.4-10.03-0.4
			c-40.21,0-75.84,18.91-97.92,48.02c-3.42-0.27-6.86-0.42-10.34-0.42c-14.96,0-29.29,2.62-42.51,7.41
			c-14.88-8.72-32.32-13.75-50.99-13.75c-54.36,0-98.42,42.62-98.42,95.18c0,21.17,7.15,40.71,19.23,56.52
			c-22.67,3.13-40.1,21.97-40.1,44.76c0,9.24,2.87,17.81,7.77,24.97c-31.35,5.61-57.5,25.58-70.84,52.6
			c3.59,1.21,7.27,2.18,11.05,2.9c-7.75,9.06-12.15,19.43-12.15,30.45c0,35.56,45.87,64.4,102.46,64.4c7.77,0,15.36-0.55,22.64-1.59
			c15.73,22.26,41.63,36.8,70.95,36.8c22.16,0,42.36-8.31,57.7-21.97c6.87,0.79,13.85,1.23,20.93,1.23c1.47,0,2.95-0.02,4.42-0.06
			c19.65,22.99,48.84,37.56,81.45,37.56c35.47,0,66.9-17.26,86.39-43.82c3.02,0.26,6.05,0.39,9.13,0.39
			c51.41,0,94.35-36.22,104.71-84.54c23.79-14.11,39.53-38.53,39.53-66.33C817.72,397.58,799.96,371.84,773.67,358.25z
			 M386.73,568.9c0.25-0.32,0.48-0.66,0.73-0.98c0.07,0.32,0.12,0.65,0.19,0.96C387.33,568.89,387.03,568.9,386.73,568.9z"/>
		<path class="st113" d="M743.66,387.15c1.75-6.47,2.69-13.28,2.69-20.31c0-16.26-4.99-31.34-13.5-43.79
			c1.16-1.53,2.26-3.11,3.27-4.73c-5.97,2.53-11.54,5.63-16.61,9.2c-5.67-6.45-12.31-12.07-19.7-16.62
			c-0.38-37.72-21.26-70.66-52.29-88.73c-13.66-7.95-29.29-13.03-46-14.36c-2.92-0.24-5.88-0.36-8.85-0.36
			c-35.5,0-66.95,16.83-86.45,42.74c-3.02-0.24-6.05-0.38-9.13-0.38c-13.2,0-25.85,2.34-37.53,6.59
			c-13.13-7.77-28.54-12.24-45.01-12.24c-47.99,0-86.89,37.94-86.89,84.73c0,18.84,6.31,36.24,16.98,50.31
			c-20.02,2.78-35.4,19.56-35.4,39.84c0,8.22,2.53,15.86,6.86,22.23c-27.68,4.99-50.76,22.77-62.54,46.82
			c3.17,1.07,6.42,1.94,9.75,2.59c-6.84,8.06-10.73,17.3-10.73,27.1c0,31.66,40.5,57.33,90.45,57.33c6.86,0,13.56-0.49,19.99-1.41
			c13.88,19.82,36.75,32.76,62.63,32.76c19.56,0,37.4-7.4,50.94-19.56c6.06,0.71,12.23,1.09,18.48,1.09c1.3,0,2.6-0.02,3.9-0.05
			c17.34,20.46,43.12,33.44,71.9,33.44c31.32,0,59.06-15.36,76.27-39.01c2.66,0.23,5.34,0.35,8.06,0.35
			c45.39,0,83.29-32.24,92.44-75.26c21-12.56,34.9-34.3,34.9-59.05C782.55,422.15,766.87,399.25,743.66,387.15z M402.06,574.66
			c0.22-0.29,0.42-0.59,0.64-0.87c0.06,0.29,0.11,0.58,0.17,0.86C402.59,574.65,402.33,574.66,402.06,574.66z"/>
		<path class="st114" d="M369.56,382.71c0,0,96.48,44.38,61.75,214.19s-75.26,331.9-75.26,331.9s25.09-11.58,40.52-52.1
			c0,0-19.3,25.09,27.02,69.47s109.99-38.59,109.99-38.59s17.37,44.38,52.1,44.38c0,0-109.99-231.56-65.61-370.49
			s113.85-84.9,113.85-84.9s-48-40.28-91.42-4.82c0,0,7.48-82.98,43.18-128.32s44.38-46.31,44.38-46.31s-41.49,0-90.69,93.59
			c0,0,1.93-53.07-14.47-68.5c0,0-23.16,0-29.91,19.3c0,0,15.44,17.37-3.86,73.33c0,0-22.19-73.33-52.1-98.41
			c0,0,11.58-64.64,44.38-102.27c0,0-37.63,23.16-57.89,83.94c0,0-63.68-78.15-128.32-109.99c0,0,28.94,15.44,46.31,46.31
			c0,0-15.44-1.93-32.8,10.61c0,0,30.87-4.82,33.77,4.82c0,0,67.54,65.61,65.61,126.39C410.08,396.21,388.85,377.88,369.56,382.71z"
			/>
		<path class="st115" d="M454.46,948.06c-8.59,0-16.16-3.26-23.15-9.95c-28.72-27.52-28.48-44.99-27.04-51.22l-21.07-7.1
			c-2.19,4.86-4.5,9.16-6.84,12.97c14.1-58.35,41.54-174.61,65.88-293.61c18.67-91.28-0.17-147.64-19.26-178.84
			c-0.79-1.28-1.58-2.54-2.38-3.76l0.63-19.97c1.73-54.43-45.84-110.28-63.01-128.61l4.29,0.66c31.35,28.51,53.96,56.04,54.33,56.5
			l10.53,12.91l-0.5,2.77l4.96,4.16c22.4,18.79,42.67,73.57,48.59,93.09l10.01,33l11.24-32.6c14.97-43.42,10.63-66.57,5.95-77.28
			c3.27-4.42,8.49-6.34,12.35-7.18c6.56,11.7,8.84,39.13,8.22,56.29l19.11,5.09c-12.37,37.62-15.73,73.09-15.93,75.36L529,517.18
			l20.57-16.8c0.5-0.41,1-0.8,1.5-1.19c-14.77,15.56-29.32,40.32-41.63,78.87c-19.1,59.78-13.69,141.83,16.08,243.87
			c13.71,47,29.39,86.94,39.5,110.9c-13.56-10.88-20.94-29.09-21.04-29.36l-7.26-18.3l-11.99,15.59
			C514.59,913.92,482.22,948.06,454.46,948.06z"/>
		<path class="st116" d="M454.46,936.89c-5.64,0-10.54-2.18-15.42-6.85c-26.48-25.37-24.23-39.16-23.89-40.65l2.28-9.86l-24.43-8.23
			c15.08-63.17,38.83-165.5,60.19-269.92c19.4-94.85-0.54-154-20.68-186.91c-0.21-0.34-0.42-0.68-0.63-1.02l0.53-16.52
			c0.46-14.36-2.13-28.68-6.6-42.42c17.7,16.09,36.25,61.42,43.94,86.78l20.01,66l22.49-65.2c2.83-8.19,5.01-15.75,6.66-22.73
			l14.31,3.81c-9.79,33.81-12.64,63.02-12.96,66.55l-3.65,40.56c-6.56,12.97-12.51,27.79-17.81,44.38
			c-19.79,61.93-14.4,146.18,15.99,250.4c5.15,17.67,10.57,34.34,15.9,49.63l-14.83,19.27
			C505.08,907.96,475.88,936.89,454.46,936.89z"/>
	</g>
	<g>
		<path class="st110" d="M396.53,417.93c-5.18,2.41-10.77,1.36-12.49-2.34c-1.72-3.7,1.08-8.66,6.26-11.06
			c5.18-2.41,16.61-4.01,18.33-0.31C410.35,407.92,401.71,415.52,396.53,417.93z"/>
		<path class="st110" d="M527.43,353.77c-5.18,2.41-10.77,1.36-12.49-2.34c-1.72-3.7,1.08-8.66,6.26-11.06
			c5.18-2.41,16.61-4.01,18.33-0.31C541.24,343.76,532.6,351.36,527.43,353.77z"/>
		<path class="st110" d="M370.67,531.26c-1.5,5.51-5.91,9.11-9.85,8.04c-3.94-1.07-5.92-6.41-4.42-11.92s7.65-15.28,11.59-14.21
			C371.93,514.24,372.17,525.75,370.67,531.26z"/>
		<path class="st110" d="M381.99,513.85c2.67,2.61,3.33,6.27,1.46,8.18c-1.86,1.91-5.54,1.35-8.21-1.26
			c-2.67-2.61-6.3-9.22-4.44-11.14S379.31,511.25,381.99,513.85z"/>
		<path class="st110" d="M277.71,404.07c-1.5,5.51-5.91,9.11-9.85,8.04c-3.94-1.07-5.92-6.41-4.42-11.92
			c1.5-5.51,7.65-15.28,11.59-14.21C278.97,387.06,279.21,398.56,277.71,404.07z"/>
		<path class="st110" d="M289.02,386.67c2.67,2.61,3.33,6.27,1.46,8.18c-1.86,1.91-5.54,1.35-8.21-1.26s-6.3-9.22-4.44-11.14
			C279.69,380.54,286.35,384.06,289.02,386.67z"/>
		<path class="st110" d="M630.75,612.25c-1.5,5.51-5.91,9.11-9.85,8.04s-5.92-6.41-4.42-11.92c1.5-5.51,7.65-15.28,11.59-14.21
			S632.25,606.74,630.75,612.25z"/>
		<path class="st110" d="M642.06,594.84c2.67,2.61,3.33,6.27,1.46,8.18c-1.86,1.91-5.54,1.35-8.21-1.26s-6.3-9.22-4.44-11.14
			C632.74,588.71,639.39,592.23,642.06,594.84z"/>
		<path class="st110" d="M588.21,470.23c6.43-1.68,12.62,0.69,13.82,5.29c1.2,4.6-3.04,9.69-9.48,11.37
			c-6.43,1.68-19.86,1.13-21.06-3.47C570.3,478.82,581.78,471.91,588.21,470.23z"/>
		<path class="st110" d="M564.08,468.89c1.09-4.21,4.41-6.99,7.42-6.22s4.57,4.82,3.48,9.03c-1.09,4.21-5.67,11.71-8.68,10.93
			C563.29,481.86,562.99,473.1,564.08,468.89z"/>
		<path class="st110" d="M587.06,209.34c-2.2-6.27-0.35-12.64,4.14-14.21c4.49-1.57,9.91,2.24,12.11,8.51
			c2.2,6.27,2.75,19.7-1.73,21.28C597.09,226.5,589.26,215.62,587.06,209.34z"/>
		<path class="st110" d="M478.77,532.19c5.45-3.81,12.08-3.74,14.8,0.16c2.72,3.9,0.51,10.14-4.94,13.95
			c-5.45,3.81-18.23,7.96-20.96,4.06C464.95,546.47,473.32,536,478.77,532.19z"/>
		<path class="st110" d="M676.92,375.7c-5.71,0.07-10.38-3.19-10.43-7.27c-0.05-4.08,4.54-7.45,10.25-7.52
			c5.71-0.07,16.79,3.17,16.84,7.25C693.63,372.25,682.63,375.63,676.92,375.7z"/>
		<path class="st110" d="M667.05,360.42c-2.26,1.45-4.93,1.31-5.97-0.31c-1.03-1.62-0.04-4.1,2.22-5.55s7.49-2.91,8.52-1.29
			S669.31,358.98,667.05,360.42z"/>
		<path class="st110" d="M706.86,525.36c4.92-0.93,9.45,1.17,10.12,4.69c0.66,3.52-2.79,7.13-7.71,8.06
			c-4.92,0.93-14.99-0.18-15.65-3.7C692.95,530.89,701.94,526.29,706.86,525.36z"/>
		<path class="st110" d="M713.97,541.9c1.32-2.91,4.08-4.49,6.16-3.55c2.08,0.95,2.69,4.07,1.36,6.98s-5.6,7.74-7.68,6.8
			C711.74,551.18,712.65,544.81,713.97,541.9z"/>
		<path class="st110" d="M518.78,371.59c-3.62,0.1-6.61-1.92-6.68-4.51c-0.07-2.59,2.81-4.76,6.42-4.86
			c3.62-0.1,10.67,1.85,10.74,4.43C529.34,369.24,522.4,371.49,518.78,371.59z"/>
		<path class="st110" d="M445.9,319.42c5.08-2.61,10.71-1.79,12.58,1.84c1.87,3.63-0.73,8.69-5.81,11.31
			c-5.08,2.61-16.43,4.68-18.3,1.05S440.83,322.03,445.9,319.42z"/>
		<path class="st110" d="M336.54,237.88c-3.34-5.75-2.71-12.35,1.41-14.73c4.11-2.38,10.15,0.34,13.49,6.1
			c3.34,5.75,6.39,18.84,2.28,21.22C349.6,252.85,339.87,243.63,336.54,237.88z"/>
		<path class="st110" d="M470,259.55c-3.34-5.75-2.71-12.35,1.41-14.73c4.11-2.38,10.15,0.34,13.49,6.1
			c3.34,5.75,6.39,18.84,2.28,21.22C483.06,274.53,473.33,265.3,470,259.55z"/>
		<path class="st110" d="M341.69,261.49c-4.35,0.08-7.92-2.38-7.97-5.49s3.42-5.69,7.77-5.77c4.35-0.08,12.8,2.33,12.85,5.44
			C354.4,258.79,346.04,261.42,341.69,261.49z"/>
	</g>
</g>
</svg>
